<mxfile host="app.diagrams.net" modified="2024-05-14T14:18:23.396Z" agent="Mozilla/5.0 (Windows NT 10.0; Win64; x64) AppleWebKit/537.36 (KHTML, like Gecko) Chrome/124.0.0.0 Safari/537.36 Edg/124.0.0.0" etag="oaZJJ4FUl1QlYXUVYqV7" version="24.4.0" type="device">
  <diagram name="Page-1" id="OZUV5OlAZ3FQE7lOVwUF">
    <mxGraphModel dx="805" dy="476" grid="1" gridSize="10" guides="1" tooltips="1" connect="1" arrows="1" fold="1" page="1" pageScale="1" pageWidth="850" pageHeight="1100" math="0" shadow="0">
      <root>
        <mxCell id="0" />
        <mxCell id="1" parent="0" />
        <mxCell id="mLVlggJ9Dr1vu6lOszKY-29" value="" style="rounded=0;whiteSpace=wrap;html=1;sketch=1;hachureGap=4;jiggle=2;curveFitting=1;fontFamily=Architects Daughter;fontSource=https%3A%2F%2Ffonts.googleapis.com%2Fcss%3Ffamily%3DArchitects%2BDaughter;" vertex="1" parent="1">
          <mxGeometry x="40" y="10" width="790" height="450" as="geometry" />
        </mxCell>
        <mxCell id="mLVlggJ9Dr1vu6lOszKY-1" value="" style="shape=image;html=1;verticalAlign=top;verticalLabelPosition=bottom;labelBackgroundColor=#ffffff;imageAspect=0;aspect=fixed;image=https://cdn4.iconfinder.com/data/icons/miu-black-social-2/60/github-128.png;sketch=1;hachureGap=4;jiggle=2;curveFitting=1;fontFamily=Architects Daughter;fontSource=https%3A%2F%2Ffonts.googleapis.com%2Fcss%3Ffamily%3DArchitects%2BDaughter;" vertex="1" parent="1">
          <mxGeometry x="40" y="140" width="128" height="128" as="geometry" />
        </mxCell>
        <mxCell id="mLVlggJ9Dr1vu6lOszKY-2" value="" style="shape=image;verticalLabelPosition=bottom;labelBackgroundColor=default;verticalAlign=top;aspect=fixed;imageAspect=0;image=data:image/jpeg,/9j/4AAQSkZJRgABAQAAAQABAAD/2wCEAAcHBwcHBwgICAgLCwoLCxAODQ0OEBgREhESERgkFhoWFhoWJCAmHx0fJiA5LScnLTlCNzQ3Qk9HR09kX2SDg7ABBwcHBwcHCAgICAsLCgsLEA4NDQ4QGBESERIRGCQWGhYWGhYkICYfHR8mIDktJyctOUI3NDdCT0dHT2RfZIODsP/CABEIAgACAAMBIgACEQEDEQH/xAAdAAACAgMBAQEAAAAAAAAAAAAABQQGAQMHCAIJ/9oACAEBAAAAAPSOKzOc6q68lrVVnK/os+KzOc6q68lrVVnKvzmsU6vQia3tvR7qWcr+iz4rM5zqrryWtVWcr+iz4rM5xhDKa6UzSWugvxLqf4QymulM0lroKTjHKo48v7ogVujxfvqHpJyl1P8ACGU10pmktdBfiXU/whlLt9gKw1ZREdi2poNmzWN9gKw1ZREcfz5ze98+f966bgAKLyjl8r0j2DNY32ArDVlER2Lamg2bNY32ATfbbUrksIkFjIW6HGU3221K5LBF575x2S88PuXa/vGr4+PnBn6UefaF6l6wm+22pXJYRILGQt0OMpvttq24rM5zqrryWtVWcr+iz4rM5zq5X5u6V2HmHL/S9rxH1AAAHAOVeke24rM5zqrryWtVWcr+iz4rM5rpj/cvRo3742qVshYnaY/3L535S9FPOV1P0820xgAAADzVRPYNvj/cvRo3742qVshYnaY/2n32ArDVlER2Lamg2bNY32AqvkLull5NW/Rlk0RwAAACTq8i/PryzFYasoiOxbU0GzZrG+wETGQAADGTGTj3nu8c4l9G9J6op9SaHGvQABt5bxaGs9FdqAAAMZMZJeKzOc6q68lrVVnK/os+Kzyvz4y7V0FDwP1/BM6PLtUYd86OABv4hYqRym2eq5rnVXXktaqs5X9FnxWZ2/M3XF2StGjfvifEjdByu8T2T0hRaru517Hjkjyfb+5yvn5AAAKN5i9vOouyVo0b98T4kboOZutBvsBWGrKIjsW1NBs2axv5p5s9Z8uhmad6uCo8f9H4AAAADzZ3HplYasoiOxbU0GzZrG+wBhPvZR106WvjNNqn4c48rVvrFNCHt9Cgmy4AiygAAhTeR6u8so66dLXxmm1T8OcJ97LFZnOdVdeS1qqzlf0WfHjJ/O0Ak6H1YAA38l6pgK1ZsH1z6yVnn3pNzqrryWtVWcr+iz4rM7RtdCCcxiqnO5VFe/Ve87cr6Xv2hW+43EADdJoEC/hyC8WclwuCdJ417BQzmMVU53Kor36QbXRWd9gKw1ZREdi2poNmz5N5mwt5DYNKz3+yAAfW/Pl3u1iK3wr01hSk4B2fzp2fuLRlER2Lamg2bNY32AMVmc51V15LWqrOIOAcfvyes7bHXG1k6j0QACicve0S+9sM+Y+l9R8q1PpHZfK2r0d22uvJa1VZyv6LPisznGEMprpTNJa6C/OK+aru/wCV330z9r/Ilsf97AAXcbSuu1ygR+VvUFnz8I/LbKs+r7e0lroL8S6n+EMpdvsBWGrKIjsW1NWfJTa+oKR7P878u7nG5LZPUWQAAAA5zwj1UzKx5tulFz7g+Edi2poNmzWN9gE3221K5LCJBYyFnlKldP8Auq7PVXNafWOuVO/2cAAAAA4rzr06yo3Brbo531z0hEYyFuhxlN9ttW3FZnOdVdeS1qqq+UOgvYiWB645g2nxLSAAAAEmMGfL9q7ryzlNkK/T/ZF3WqrOV/RZ8Vmc10x/uXo0b98bV4/UdIj6dHNfZGlbZgAAAAIDmNg1+X+wdE4NXG4c7v3rGNqlbIWJ2mP9p99gKw1ZREdipPjvojeIZoXQu/gAAAABwPu+5dyvlfXOt/XlR9vBFTPW3RNqaDZs1jfYCJjIAGPL/OuoxNYLaB27tETgffZQAAAHMOEuN/ROq/XJOneS+kYA5r2H0ZkMZMZJeKzOc6q68lpfEFstMQAQU/adU9DRAADfqo1Ctbhp9zKjQuX951cfuABU4PtVZZyv6LPiszt+ZuuLslaNHNvLfUdmoAIldrnrS2wwAMTue2KncWqv3jtPI/nu/VfKM9wALaD7CvMT4kboOZutBvsBWGrKIj4TyjqkHAAGeX+hevQAptzwGxbxHuUtZWlliLJsovmrpQAZ5j6L7img2bNY32AMJ97KOunS/G6m8xQAApNn9RxNZQoHTACr+aOg2dht02x58eUJz8ACi3X0202qfhzhPvZYrM5zqrryX4Nsll0gABC597OnxTPnPs1lAKnxisfDm4dt38S5D0YAAqR62sxX9FnxWZ2ja6EE5jFQ+JugNfkAACk9R7zBwRfN3f3gAfR8ZKb5e++gSwAK5V/fKqK9+kG10VnfYCsNWUSieRuiywAAyqpX17EZRQWeb+53AAAzzDgU5fi8sAAR0f8AQFRBs2axvsAYrM5zqrryu+LuiSwACLUkrKJbvUO3UC3zdZeztwDn3Gaixvvxz6PdnAAnovs26Ff0WfFZnOMIZTXSmaV3xf0GcAHzV60xtrZfz2b0+2u9nFFtX03S0faOlL/o+pPRNfP4lxfgJ6L7Ttol1P8ACGUu32ArDVlEo3kS/MgBTTvi32DBrrdT9NCjkmlwmRa7haW7/kCa7seZMrJIoiroc0EVI/QJPBs2axvsAm+22pXJYRFHh+8Owi1ZE5uu4jroZpUdG6pwGxyD4rVRsT+pu7ZD+KxBaT2XLr41Ct1r3rA0OMpvttq24rM5zqrryX4RcWchc+LhYiGujgGYqhd1jSG3XzzolQzbcCNG3PumdO+wqP360sxX9FnxWZzXTH+5ejRv3+PkF1EtJv7WCs1gAAIOh/ACyrXKtsLB8iRMzIMO9gUO/em5WyFidpj/AGn32ArDVlER8O5B0r50c2tloUwAAABZaJgBR/joVIxN3ppkkTOLEBzD0l2xNBs2axvsBExkADm3lToc0oUbpcBQAAAafm0hqo9k9RzFHBYFk53FZ5q9/kgqonsa3BjJjJLxWZznVXXktP4if2cQU7oUxAAAAZrnRPhCr6tyfvdiSfFXs2jz+/1ouh4Coa/Z6uzlf0WfFZnb8zdcXZK0aN/mrlXR8fHM7Lb61gAI277BXBh2Xte5FyP2zI4etdcyQbFc6zhjmvaPQ++J8SN0HM3Wg32ArDVlER2KqeL7w5KXB6MjjAAnscb5Mw13ftxnjXaOUXphG4q0zWL3MCv1D17fNqaDZs1jfYAwn3so66dLXxvKNW6FhTROoL14AKbXCjgs3dskgk5j7L853HifwaEfRcGOc9N9UQIzTap+HOE+9lisznOquvJa1Ul8gXR7nmN3lqQAV3JTHDRX8dD6LIzwr0py457LErSz5i12u+z7atVWcr+iz4rM7RtdCCcxiqnO5X5h5z0XbRmViRgAtuKiOBlen13u+LK7qrTMxU78nQRWC/s/eXO5VFe/SDa6KzvsBWGrKIjsW1Mg8lbb1VIl2rmQ0fcC5KI4Gci9REaqt7vGF0Mz0btfS+deR/VHUNqaDZs1jfYAxWZznVXXktaqs5yPy7Z5da6PWQPmsfdmhRNWr41aPg+tmAD4+pff+1yatazyxN9EKrOV/RZ8Vmc4whlNdKZpLXQX4l4pwV8i6tXdRivaNUu22uxWNu5Ym2KmoXnu14pXrHTw/wBh8Qqvodmct8we2oz8S6n+EMpdvsBWGrKIjsW1NBs2fL3IfnqKiMbW26L0nuAAABWPKtpxyr1P1fwv7grXL5XQbks8Iexb6mg2bNY32ATfbbUrksIkFjIW6HGU/BeJdEixAD46L6OAAAKv5k+oVY7t3/yL6WsgBp8S9q7st0OMpvttq24rM5zqrryWtVWcr+izn5/dA1xAD6fesAAACr+cU/zXuk+qPNfT7xyTTa76t8r3nsFnK/os+KzOa6Y/3L0aN++NqlbIWJ3x4St2YgBk9ngAAFY86IRC89meeLP0T7+/r6X+TPQvRJWyFidpj/affYCsNWURHYtqaDZs1jf44e/UcAEPu4AAArPAKj9pYftTz3FtMGFdehUDzz7mlJoNmzWN9gImMgAAGMmPFqpmxwAIvZz8AACt8N57IVJX18ec8h9Y+arzD031TIYyYyS8Vmc51V15LWqrOV/RZ8cC4PGkOZ+AVememAAAVzkPEfmL8+vOg4ptDixdnTbktVWcr+iz4rM7fmbri7JWjRv3xPiRug5mwOK8XS72k/cv7D34AABBy3k9w4v7MuMHM3XF2StGjfvifEjdBzN1oN9gKw1ZREdi2poNmzWN9gKxO53warH3t6D62AAAR83gdJ8U+7WdY32ArDVlER2Lamg2bNY32AMJ97KOunS18ZptU/DnCfeyjrp1c5hWlNG94gAAKeapOo+V+9X9zhPvZR106WvjNNqn4c4T72WKzOc6q68lrVVnK/os+KzOc6q68lrVUrw37YtIAALucVPrXAmnbLPisznOquvJa1VZyv6LPisztG10IJzGKqc7lUV79INroQTmMVU53K/H/a+1AABC55z3tHGUXqxBtdCCcxiqnO5VFe/SDa6KzvsBWGrKIjsW1NBs2axvsBWGrKIjsW1NwJD60AAD4oXnq2806P6crG+wFYasoiOxbU0GzZrG+wBisznOquvJa1VZyv6LPisznOquvJa1VZ6h4097bAAAqPiq7dK6pIs+KzOc6q68lrVVnK/os+KzOcYQymulM0lroL8S6n+EMprpTNJa6C/PDnojrgAGhTH8cesL2l1P8IZTXSmaS10F+JdT/CGUu32ArDVlER2Lamg2bNY32ArDVlER2Lamg8a4W3vNqfzBQmR1GqeqLjZs1jfYCsNWURHYtqaDZs1jfYBN9ttSuSwiQWMhbocZTfbbUrksIkFjIW6DjtNq6SL8Z3Tm7zr3RdDjKb7balclhEgsZC3Q4ym+22r/xAAaAQEAAwEBAQAAAAAAAAAAAAAAAgMEBQEG/9oACAECEAAAAAAAgl6AAAAU5oeLNVoAAAMmeHgbtIAAAz44Wxge69XoAABlxabqM57ZfrAAA9YM2nM98HvSsAAB65dZO7NZFot0AADJre8qBffmhqp1x0AAHOnavxZyyyjzT5n0+bwAKOH167Kq4g9825rOd27QAcSnfKqIFsJaclvO1dcAKeFKXXh5kHtq+Bnxu7YAObgPepHNKKyyycIT5cXS3gDjZxf0ca/M03xohZzTX1gBwqxLtYqrpZxPpU8iK/tADgwNvX08/HXs9zrtGjTyuNC3uADh1XdbqXRzZvONZv8AI82z6WXC5d/aAHHq+h3+QPM/zCeyfNu+mn8/g19YAc/n/RdKoI/L039f2EuhD5ivp7gBVw+p34HnrkV9nPVo1U4/nndsADj+fS2eK7fI+aaufqlLg87X1gAU8X6TbFC6HlHujHO+r5+7bYABg09iHlGiuPkakpV+AABDrV+QyA86fNAAAdGJgB50cMQAAOh4YfA86GOsegAE9FjHAPNVEQAACdlcA8egAAAA8egAAAA8egAAAA89AAAAAAAf/8QAGwEBAAIDAQEAAAAAAAAAAAAAAAEDAgQGBQf/2gAIAQMQAAAAAAJnJjEAAAAmbLc5YU1QAAAmV92YNWiAAAMluxnhOQ1qMQAAZIv2qarbhXXrQAAJmG1fReA0awABI3szGq/DJRhQAAT0HgI3symu/LXsommAAJ7HW51Xs3GGFyibs/T5iAAer9M+e+ZjnZIInVv3e7+ceeAE/St/luatkCvKKNj1+y8XgYAHp/TaKvnmvOwIwirI6/oHzPSAHZ9PDDi/H2McmGGOGWeP0i9x/LAE/RfTHm/P9qK7lNM25+z2J4fBwAn6fsin5xlZVFwx0vU76x53ziAGX1C9HO8XoelfZrRcrq1tPo+/2dL5pACfpe75/Ec5rZ7e5P0bS5bU3O60/l+Hcdp5vzmAE9/v/LfLnOU7X2GKue1+u0Pk+H0Pp/C4SADrOr+V+JcGf1nf83gK97Dwc/rO5x3LgD0PpPFcNmTDq9rity7U0dv2Pp75lpgCfoFny2jJbTOcaV/r6GOPf9Z4fBwAHo/R/lHk5rNeydnHS9Gui76V53O6YAJ6jzeSsna1bcpzvYYXTETAAJ2eetyt3IDLyPWETAAE+VkenAZeV6WSEoABPmD0ZDLy/QsDEACcNWlv5hlp7OQQAATjRbmGSIAAAEoDJEAAABMBMsQAAATAlAAAAEzCUQAH/8QANxAAAQQBAgUCBQQCAQQCAwAAAwECBAUABhAHERQVNBITICEwM0QjJCUxIkEyFjVAQhdRJkNT/9oACAEBAAEIAMP9g21b5otrfxmbU35G1v5LNq/wxbSfJPuf7Btq3zRbW/jM2pvyNrfyWbV/hi2tZkOvU8mdZcU9LQubIlhxy1IdVSvl8StdTPk8uotRHVVK6wsHrze2wsWLzYzUWoh8vRG19rKK5HMqOM2pq5eUqo436bkehlo27qdQKkipyv8ADFtJ8k+5/sG2rfNFtb+Mzam/I2t/JZtX+GLaT5J9z/YNtW+aLOoBhSAUJWt6WTkIRAyRkL1AMsXskBawHSycrf23ve/1AMsGKczXA6WTkIogxRjL1AMOAzzlezpZOdQDCkAoStb0snIQiBkjIXqAZYvZIC1gOlk5W/tve9/qAZYMU5muB0snLfiNpnSgEiy73jLqWxRRVUuXLsJDpU7P/tcptNag1D86iFwc1Cbks4fBRn/7X8FA/wDpI4L2bWL0k3hbraH82T4M+qIgrL/SKgSljmHIj0HFW4gKwNzpbUtHfVTD1vUAw4DPOV7Olk51AMKQChK1vSychCIGSMheoBli9kgLWA6WTlb+2973+oBlgxTma4HSychFEGKMZeoBhwGecr2dLJzqAYUgFCVrelk5CEQMkZC5G8kG1h4ZdqjyX7XP4+1R4z9rLzS7A+wHeN5INrDwy7VHkv2ufx9rHWlBpCC5bTVXFPUOovXFhRIkiYZsSCDhfrQ8Up1aqPRrm0GmLvU5lHU6e4WafqUYe05qrWt+Hlj0UonBLbcNdH2vrel3wl1DX+s1UQZAmIA1dZT6eaOfXaN1zD1SxIpwLyAHeN5INrDwy7VHkv2ufx9qjxn7WXml2B9gO8byQbWHhlzt03BQpISDKTuMPJMkMsLgA7dNyIMkAjiye4w8mfyHt9L26bkMrIAnCk9xh5JjGlmecHbpuCmxQCYJ/cYedum4KFJCQZSdxh5JkhlhcAHbpuRBkgEcWT3GHmorirhQ2zpmo+K02V642nqunutSzyjr6LhLXg9BL+bc6X0ZCUL7/X+otSHLW1mluEjGeiXqkQxACKODFVrf+SnZ/pTu/wBKUi4rnL/fz25qme4TLyjp9SAQNxq7QFjppHzYzHvG8ZRcOOJwbwQqe77jDzt03BQpISDKTuMPJMkMsLgA7dNyIMkAjiye4w8mfyHt9L26bkMrIAnCk9xh5JjGlmecHbpuCmxQCYJ/cYedum4KFJCQZSdxh5JkhlhcAGH+wbat80W1v4zNqb8ja38lm1f4YtpPkn3P9g21b5otrfxmZq7WtfpUSCW6vbS/mdba6W4WnlIObqU8mm0zXBCuo9dz+kK5tVU3msbVI0PSujajSIV6THPaxObnGev9fS/+81/oJlQhbulRXMc17NAa2/6jD26xw/2DbVvmi2t/GZtTfkbW/ks2r/DFtJ8k+5/sG2rfNFnd42dcAzXBb2iTg4hIBGyS93jYc7LFnsh7RJwP8V6vf7vGwwXWbveD2iTg5Y4DEjF7vGx1ceQ5xmdok53eNnXAM1wW9ok4OISARskvd42cQddRtOVAmRnLNs5qudovQUXTTB2FjqHUoqdXxY5inlyCSZUCrsNd6hSJX0lHWadrh11Zjy+n5N/tea/U+XJUXXujk01NZLggOeKcUmNofXsPVNMwh+uAZrgt7RJwcQkAjZJe7xsOdliz2Q9ok4H+K9Xv93jYYLrN3vB7RJwcscBiRi93jY6uPIc4zO0Sc7vGzrgGa4Le0ScHEJAI2SXI3kg2sPDLtUeS/a5/H2qPGftZeaXYH2A7xvJBtYeGXCmDGCaRI1DeH1Dby7aTw60g2ihDuZ+pb5aIDAR2tV3NyW04kwg6Sr0rpqJpSoHXgwpOXNjfrMCifN8+tiW9fKrpuptOzdLXB6uZpu/k6at49kCtkR5nQyo2WHhl2qPJftc/j7VHjP2svNLsD7Ad43kg2sPDLnZsWt6b9fO851ncP2udmz2e1fr53nP+752bPe7V+hnec6PuH7rOzYll036Gd5zs2LW9N+vnec6zuH7XOLF1Bq6Q1LGqpUSDZQ5cy24p6tsnk6WQdZUh5Za09kyKSWvCEVeuqiqfCk9Cck2a1z15Igxja57rLijo2te4TYHE/RtoZol/r6AU5v55r3iMajlFpaOTqvVcszjGm3VxZRwxrHODdz1ldLqT95zrO4ftc7Nns9q/XzvOf93zs2e92r9DO850fcP3WdmxLLpv0M7znZsWt6b9fO851ncP2ux/sG2rfNFtb+Mzam/I2t/JZtX+GLaT5J9z/YNtxC10Wk501OqqrnOdU09pezOiq6PhLWRvQS+Y7TulhoId1q+msq6fXZoea+Bq3TUjH/po71KqqqquNarnI1Lm4rNOVhbGx1VrO41ab0ygsfIKgI7qW7a1VfwqkzT6VIOV8cZ7Bma59dwtPZSZljqQvCrSJBoxt3wmtojXGpHseN5BE0Lcdj1VWyXKioqotb5otrfxmbU35G1v5LNq/wAMW0nyT7n+wbat80Wd3k42xPIc0L+0RsJEHAYskXd5OCM6ycoT9ojYb+K9Psd3k4ADbFnvG7RGwkskAjowu7yc6EBmtM7tEbO7ycbYnkOaF+pjwtM0VjckPIkSzmkytKaUm6qnuAIQ6DR1OMArPV1tP9QozWNaqqgvuMzT6c9R0SJKdzK9qbA9KI97taaqfqy5fMbo3hqlkAFrfwo0WtAkav8AeNjnOevN309baKBqmMsqI9ruTmrp98W8oKq1UkQcBiyRd3k4IzrJyhP2iNhv4r0+x3eTgANsWe8btEbCSyQCOjC7vJzoQGa0zu0Rs7vJxtieQ5oX9ojYSIOAxZIsjeSDaw8Mu1R5L9rn8fao8Z+1l5pdgfYDvG8kGcdLFY9XTVLEaR6tYKugV+iNNsjPsLCXbTHzZmyORnqeugoyTdX6bGvNV+a7cQbAlfoi49rhxpQV9YvsJznOc5XO+vxOqmVuqjSRcGLHqdFoB9h4ZdqjyX7XP4+1R4z9rLzS7A+wHeN5INrDwy526HhYUUAnlZ3GbkaSaWZgD9uh5MEyAJpY3cZuQ/5D3Oq7dDyWQkAjRRu4zcjRgywtOft0PCzZISEEPuM3O3Q8LCigE8rOME98zVEQT+H0Nk7WtEMmtrBT2AK1u9kVQVk8qcJIHvaimTF31BRxtR1EmqkUFMDT9LBqgfB1sTru3fSmWESvfXslZxhiI+qpJ+cFrIwG38NkaSaWZgD9uh5MEyAJpY3cZuQ/5D3Oq7dDyWQkAjRRu4zcjRgywtOft0PCzZISEEPuM3O3Q8LCigE8rO4zcjSTSzMAfD/YNtW+aLa38Zm1N+Rtb+Szav8ADFtJ8k+8jkgDc9fWcK31VOlQOD42F1mqElynTZs2Y/fURPRUEbnCGGgqO0nfRaBf/fXdg7TGtdJXqub6XK34NR6sqdKvq22bmq1ytXZrFevJOLEJ79GqcWm7tNRUUC1XigH3NGSX5wjP6NRzgZW+aLa38Zm1N+Rtb+Szav8ADFtJ8k+5/sG2rfNFnVScAczziY/pwZNEMMUhBdVJyvepzOafpwZZ/tvZ9jqpOVzWyAuebpwZNKQMkgxdVJwYwqETndODHzDDY8hNecRpV+hKmrzhO9R6rOqA+YRL8GqHcosFmcPQLG0RRMd8YET1OXbibSOudJyXi4caibd0A4Rt+McRS1NJKzRtyy90zWzE2EnIbct6sV5U2NUbhXdFrbiVp6dxGT16Ev8AOG9vW0msIcm0mMEKKQgeqk5XvU5nNP04Ms/23s+x1UnK5rZAXPN04MmlIGSQYuqk4MYVCJzunBnVScAczziY/pwZNEMMUhBZG8kG1h4ZdqjyX7XP4+1R4z9rLzS7A+wHHvYNjnv17rtb976mrRFcrWtn1p61IyH4WO//ADyqBh7mrgq4Dv8AqiFzyNdVctyMYqK1eS6oaqxoDs0a9r9IacVvxterF5oh2f76hjVRUvoVhw91d79RpjUkPVNWk6PtrCnfe6ZtIAuHeqR0Fwg5Tmq1Va7JWqNPVrnAln4jaJZ8iaqtYFnqabb0s+8Hq7hld2KL81XOHfEV8ADNNXSorVVFqPJftc/j7VHjP2svNLsD7Ad43kg2sPDLsf7Btq3zRbW/jM2pvyNrfyWbV/hi2kpzkmROJWtOqIbTtWiKqoiUtMleiSJGqZAySY0dnz+fKPHkSzJGiJojWas9eSosmId8SbU3ZICsBK1ABS1J3JwsmpJ0gKL9DiHqGy05SRTVcTivqsHJJCcZDf71TrGz1Y8CSuDoD+vUMrdFVqo5OIenEoL4jwcNdW93hJRz2uVjmvTWmm5embia54ne+Rog6e4Z3ts4ZrS6r4VXoa8r4IBFkPaMXyc3OE3EJT+zpm5t/GZtTfkbW/ks2r/DFtJ8k+5/sG2rfNFnUAwpAKErW9LJyEIgZIyF6gGWL2SAtYDpZOVv7b3vf6gGWDFOZrgdLJyEUQYoxl6gGcT9YLRjLV16IjU5ZQVCgRs+TMkpDiSJOKrnKrn6G0OfVkgh5FZXV1FBWLWRZsCc9WQ9Q6erNTwHwLO1rZdNZzaubpwvWVjohODs5Q2dtVu+O1qq+7gGrrGx4QWLHqtT/wDFer/Vyyr4Q2LzItzBgwqyGCDA31HQxtTU8irO5LSgtVRdK6miaqq0mCa9zOfpa9zE5MzVPy0pqXKFP5SLl5WcvXPAiua5r2aH1s7WNGkWV0snK39t73v9QDLBinM1wOlk5CKIMUYy9QDDgM85Xs6WTnUAwpAKErW9LJyEIgZIyFyN5INrDwy7VHkv2ufx9qjxn7WXmly/vIunKiTaSp8+ZazpNhOoKpJpeqOqqvzXUxfRV+jIkWRPlxYUWpqYtPXwaeDqqZqfX5Z06uG1iKwgtAcRJp5UaiveMVYiSai6ZDspcAchkXh0XptbUWJ/4HEHRy6hiJZV1BfTdPWYLWBTXFff1obOu21sZAaO1G/NPt52e1vXdAdHDobyfpu2i20ChtoN7UxLSBc/j7VHjP2svNLsD7Ad43kg2sPDLnbpuChSQkGUncYeSZIZYXAB26bkQZIBHFk9xh5M/kPb6Xt03IZWQBOFJ7jDw8U0orjR+Impu/3axo0KIWfKFGEEIowRgC96MTnmpeawo6rw2Gw2vKBjyDYYJQk4gkFVaDlw4nDvRVRa1ZLm54g6QFpucA1bIgN4h6HqvfBwcC13OTp/R9BplXEr/wDweJWi/I1LVaV1RO0rYLLjVFxXX1eKxrc4lGQWiLZmabbzlSybSYwpkckcxgljGIA3CHV6Uts+jmym9b7aRe3TchlZAE4UnuMPJMY0szzg7dNwU2KATBP7jDzt03BQpISDKTuMPJMkMsLgAw/2DbVvmi2t/GZtTfkbW/ks24j6qXTukWRIyIjU5Zp+v6OJ7xFVERVVzle71Lfs9dWR2aHnMrdZaelPLzYx6LxSA4ukHvTQTEHorTrU1PQj1LRy6t2iK6ZU6Sp6+d9f2G+nkqoqKqLs1zmORzeINFGoNSlDC4PNOtjfvbnF2T6NPVsVNNM5Bml3v4XvAbMH8/8AXDfUjNSUCTDZb+Szav8ADFtJ8k+5/sG2rfNFnd42dcAzXBb2iTg4hIBGyS93jYc7LFnsh7RJwP8AFer3+7xsMF1m73g9ok5rbUC6j1DKkjpYCWE5rXqvNeeFfzX0pkoHVRZEfOb1aitpLlmodP11uy8qR31NY1JNGgkRdKUkaV/4Em1gQJ9PClPKjfliqrlVV2OYEUD5MrXd8DUepDy4nC6vZE0iGXtxgmIS3pYGUI/RVidv8v8AdhDWBLLHzhXqddO6nEA3doyYYLrN3vB7RJwcscBiRi93jY6uPIc4zO0Sc7vGzrgGa4Le0ScHEJAI2SXI3kg2sPDLtUeS/a5/H2qPGfnFTUK0GkZIwfJqZQQlh17HPI70NVd0VUXmlxF6WwKjeFup2Vk89FNVFRVRVVV/v/wOKk6TB1hRyRAlxrCMGwhtRXLybZ21VSC921vOLYR+oOniG1JrKzYImmuFkSL6Jeo0RrGtYzk5VRE15YJYauvTsih6eJGD8F/F96G2Q1U5oqZpO7XUOnoFi+o8Z+1l5pdgfYDvG8kG1h4Zc7Ni1vTfr53nOs7h+1zs2ez2r9fO85/3fOzZ73av0M4uX3d9TMgjrIfXT48df7XCO9T/AILaAs+L6WKiOarXaO4mBQIq3UweUgTDR7KfBpoj5tpf8Vb2YQqUlaQ8mnqZkn6XJeSLvxQ05ItqyLawq/UdtSc2Vz9Ua1t0RGwNAawsie62n4RRhKwt5X1tdURUh1s+fAqojptjZ8TLG0mgqdHkMPTFCeQaEEkyZGERy+pyr8Co1yK18mO6JINGdwZskW0n0Jfe7V+hnec6PuH7rOzYll036Gd5zs2LW9N+vnec6zuH7XY/2DbVvmi2t/GZtTfkbX8oFe00w8mUedJkTJOlY3JkqWpHelir8VtTrKc6VE+bXK1YsmVBcroRzyJZUNK4caDFd+i9tzqrmK5foewv+3s9C8s1nG1GADLvTNdxil+hnco3FbSZ+SHDxE0QVye2mttLPxdZ6ZyBaVlv7i1ljxL0jXFKHLbi5ZnRwqays59pJdOs+HGjyUoFubLi1bJGpIdQzTofXMMdfh1HH9Jo8pKK2fQ3dZbstHsIcT2ZX+GLaT5J9z/YNtW+aLO7ycbYnkOaF/aI2EiDgMWSLu8nBGdZOUJ+0RsN/Fen2O7yc4sWyj0cXmq8kVcrY3R18WOpl5uRvxzIESf5EnTpBsIQDVRfSucP5LZeiNOka9ObHp9Bce70sVyay1g7SI4Cso7cF5UwLaLqjhxVXxCzoNxozU9H63TGFY/5MXn/ALzgs7lYXzMsWqljYItdAnXElItZo3hwKmMG0u2tcR6NTWl4zUWpZ00FED2a5j1+G4B1FbIRPkqZw4OO/wBG05zdojYSWSAR0YXd5OdCAzWmd2iNnd5ONsTyHNC/tEbCRBwGLJFkbyQbWHhl2qPJftc/j7cYZ/rn01YkCP1U6IBVX+3LzVVVV+NERy+lyscJzhO4OWKHo7SsXOXJVTe11ElDqyvhz1RWqrXbqTmNGZZVsC4gHrrGtsZ/C7UMuonwpsKzhin17XOYvNs+mprVVWxNw20QVVcj+E+kn/1pvR9PpQ0k9YuidHrKNLeAQYoUjxs4iahWh06QQIsZ0o4Yo0RrURrPhRGuX0ueNQEIF3AeyVY17VLll5pdgfYDvG8kG1h4Zc7dDwsKKATys7jNyNJNLMwB+3Q8mCZAE0sbuM3If8h7nVduh5xIlsma3u1HpkXrs3Ewq8mcvpX8dQz1KnDC3Sr1fECTDJyIq78SKBbzTRCh4b6vW8hJUT/h1dpgOq6npMizbzTFlISLX8XbsCNbZA4v0Ks5yh8VdIP/ALXijo7HcVtItzT+oIWpoL58DCEEERTH1XqImqLs9itBC9kCzH/HeD9u0krnCawJB1gwY+4zcjRgywtOft0PCzZISEEPuM3O3Q8LCigE8rO4zcjSTSzMAfD/AGDbVvmi2t/GZtTfkbWczuFnYzs0oP8AxnFwy/5NT6VhBSwiuBiOMJ6OHSW4r+nr7cJk5s57tc5rkc3W+nJOjruNdU2lNTxdVVaTBfDqnRtVqsbHyJ/C/V8N69MXTGqAOVpG6c1M/wCTY3D/AFrK9KsquEU55GvuosWLBjAhw84qan9bv+mIkON1kyPGX5f6+PUo+UmKXNISUh6roDuyv8MW0nyT7n+wbat80WdVJwBzPOJj+nBk0QwxSEF1UnK96nM5p+nBln+29n2J1jJiQJ0rBp6RsTNMM9NY9cevN7l+nfiaKyVzeD9+g5E3TZ/kuOb6HK3edBh2cKTAn2MG74a6lCaJp7UNdqeuSfB+JHvb/wAVeRf731pq4OlK9PZc55HvIQJixzDOGDNDYA94Xx6lZzjwyYCQsOQCU1QAyaUgZJBi6qTgxhUInO6cGdVJwBzPOJj+nBk0QwxSEFkbyQbWHhl2qPJftc/j5qwvs6W1ATbT3yporvpf2vJJ9vEg+oaSZJpZ3nPDmSq+XGmw6K7h6jqYltCKz1N9Sb3FPX31catspsPUfDnUI3i0rrWq1SxAs+g1rnrybqfibWVSPi0kybMspZ5s6rpy2LXmfKiSIJ1BJjyDRDNOCvsgWLF9PxaiTnXMXDfMRMhHceDEM6y80uwPsB3jeSDaw8Mux/sG2rfNFtb+Mzam/IziSiC0HqBcTKX/ABoon0Zk2NAYjpM67ly+YxfJrch1VhORHikRzRDvjn0XrKVpCc9VrLSuuYTJ9WUfpX1Jvb1FbewC11nqrRdrpQqSF09xWsoTWR76mv6TUI/XUr8lVF3d/gNxX3PEzTFUj2RNRa31BqRHgk5XpWNK0lkCSCYJDR5kOPPAoJE2GeBIUB2PeN7CMq7dk7kE3w36c6t+E/4PysXnV1q5X+GLaT5J9z/YNtW+aLOoBhSAUJWt6WTkIRAyRkL1AMsXskBawHSycrf23ve/xJKE2hdQsYmU686OD8ZCDCNxSzdQuXmyA5znucR8Cqm2CI8UOlgQla/FVXLzWxrxWQEG4gyBIQRay0s6aWk2rqeMluJnotY3FfSZ1RDg19omUvIVhrbS0CvkTmWHE3V80znRma91oxVVDnWSVxXJ8nteldxD1jWoxiA4wXCeUXjDZK39GXxS1lK+zYWVncE92zR7HfJuKqJ/ate1qOdBnFrpLZAxGEdvrFLiR5wFBImwpFef2T5UXCyVbFlfBfryrH4T/g/KuNI7XW8oRRBijGXqAYcBnnK9nSyc6gGFIBQla3pZOQhEDJGQuRvJBtYeGXao8l+1z+Pmqhe/pe/HiZSLzpYafFYXEeCrhMlS5M0nuSI8c8syBjQKCNG5ElqquXmuxTCCn6tuNll6CCex3+Y3abicO+I1NBFKPwL06rPVCPwHVvzDrDSp9HXA6yRTUjbAbpMg2l4D0X2pGmbAXNQFEUBPaNlBQUOoBAiIvB6+YT0vh8HQIqLYF0Zw80vBWwtNSavNdIWHArqWXY8iZCqoMDkoHL6kVr7eE2BPKFlYV/Shc2PMYbkwhwhkieCRaVJa1yPTK6U6ZBAd++o15Vw0w32SZFEsaHHAtl5pdgfYDvG8kG1h4Zc7dNwUKSEgyk7jDyTJDLC4AO3TciDJAI4snuMPJn8h7fSy6iVLhS46iX1DYuaed6q5zfglzYsFqOkTb6TIRw4/yamVtKeejTFjx48QPsRs/vCygB+Tizjv+TNjxwyWohXRZ0Aw5UWj4v30BPRZVvF7TExP89fXDLvV93YBrhJHroQ895me8zCpGkjUR5umGKikrzBIEjwSKvWOqaUaBgN4q6uYiNfd39rqKWk2zqaGI4QJkj+8cRz1XOSZqUfyhGSpd+lIbi/PI81w+TDEEKXHKF7FVWtVaNqtqo3PfUr+QITMix+slxYmddEaipkmMaWZ5wdum4KbFAJgn9xh526bgoUkJBlJ3GHkmSGWFwAYf7Btq3zRbW/jM2pvyNriH2+5tYOaaf8AKcLexlrBhlO173ke8hGtc97BsraAYPSeeqq5ea4WcBnyYWUc3NHInL4eaph4ceSqueavkg5uY/5sfn9RRfAHn6+ST21zx+iwtVrkP/GMgwoQXMj38AIFFKBTzLpQJEr4q2nqTrdtRN5143ZUf1J3SUSGI5GNY5GtY0QUjiEBu+pH85cYeaMjJM1bQBXK/wAMW0nyT7n+wbat80Wd3jZ1wDNcFvaJODiEgEbJL3eNhzssWeyHtEnA/wAV6vf7vGziZFbG1vbuHp8nosfRvqBivrFdi8+S8qeJDjRAyIuSJvsvcNhSlP8Ad+lbtVJCuwTvcgRnpu5GuY9jyUFIVP8AG2q+3OG1IMtJcKKVb6wDI9qKDTD1bEm8le93yXbULkStRMqW8gndvZP9MNzcpAdRZBVfguie7aSuXCCtJP1c8rO0ScHLHAYkYvd42OrjyHOMztEnO7xs64BmuC3tEnBxCQCNklyN5INrDwy7VHkv2ufx9uMVf6T0lokQ/Syo0jHJ6XKm0qP1cWRHxFVURV01K5skQXZYN5GG/wCpas5iCXKU3v0oPhVURFc65sBWBgoCNp68nTFhR4/CG9JF9ciwhai0lNdBmD1HObyQjNSiX7jdRwF/5XNoKd7DAQxKCKJjtrZ/N4BZpwHpjyJK7+to+b3K9xXOI7gRW+ivvLXay80uwPsB3jeSDaw8Mudmxa3pv187znWdw/a52bPZ7V+vnec/7vnZs4rVXvaOliaqIqKi1sjqq+KZc+afNLiN01idEgyuhmxpWOT0uVMsG8wNd9SQL345hZpiXyJJiLuc4YwlMeztST1RmcPZ1NXaphmtyEP/AJDMOu/bOkyZ9TCt61Qy9f6Io9NVILSt0rpGqtKsdlPNoXTJWK0eoNKz6BEO6vl+41sYuInNURJpUJJORIcfpIcaP8F2f2KwyIqoiKq6FjrpzR9LCf3nOj7h+6zs2JZdN+hnec7Ni1vTfr53nOs7h+12P9g21b5otrfxmbU35G12AMhXxTzoJ6ydLr5Gm5HlRV21FH9yIKSioioqLTyVlVkZ7pDPcAZmIvNOf00XkqLivdW2PusX0ovJpXjAz1nlaijDRWxIUC51ROVgKfSVLUhI0uoaN9FYkhP4c6nW+pulmcXKS6vtLAFTcGqHUNDAtn2fHMQR0FO1mi05aUq9pZYQIU01hWx0MdTLhi+wEpsq43Uz4oXKqqqqu+o5HrlBjJpmmXUOoaqpy2REks5ZX+GLaT5J9z/YNtW+aLO7ycbYnkOaF/aI2EiDgMWSLu8nBGdZOUJ+0RsN/Fen2O7ycABtiz3jcZdPdq1DGsxQpSwpYJOLy/1hQMkhLHerXsVWP0yfkaXFVP7Tm5voc5nxy5PShR6BepY8c672gFcxshrLKxGFoRucpHq9+mtNH1Ad73xo0WDFFDhZqWl79VPjj0tfv03dwrZtXKY+KjGZx4L+002zNMjQOmaJm2vrZ5TgoIoQtjiYFmWpeQxBTTYPKlLu57BseQhjPkmKcnButeKVY37gAbYs943aI2ElkgEdGF3eTnQgM1pndojZ3eTjbE8hzQv7RGwkQcBiyRZG8kG1h4ZdqjyX7XP4+1R4z84kaaXUWk5kcCKjkRUopXUQUE7a/jezO95Ks6RrKGZVRWqrVmN9Movx2y/OM3KgLTUkQb3scN7mP2RVReaOgwVVXujRi3lrFgw40WLBighQ9kVUVFTXNSlfcdYLhFqJZlKOEeXqjX7NeGGzj+9Gf9NCZBAkauro6XFsKirD2JK4RCOLPkYiKqoiTTIWSYiV0dYsCMFd9QyvbjjiNRHvVGs05St09RwKvKjxn7WXml2B9gO8byQbWHhlzt0PCwooBPKzuM3I0k0szAH7dDyYJkATSxu4zch/yHudV26HkshIBGijdym5xB08tBqIyirJvQTGGcvyXa7j9RXFcjkVWqiAOkmPHkJYt/UE747ZPlGdlU30VNcmS/KP8FqRzQjEml7mLRWqzJUGdBtI6ya/fUlUt1SS4o9BXzKPUkGSWCf1C5P45P6rVFJXMIxVkOEPU9smo7lkWL8kREbko3TxilSuipLmxo6qqqqquyuaxrnvmSnTZRZLuEemUutRdzkpXxF+ayyEgEaKN3GbkaMGWFpz9uh4WbJCQgh9xm526HhYUUAnlZ3GbkaSaWZgD4f7Btq3zRbW/jM2pvyNrfyWba60l/1TpDlGRUcnPKGb1EZYr85Nd/i943AIQLtPl9yqGzLBOYRu+O4+URrsis9EOIzJflH+CRHHKH7b5EU8X7saTJhSGSolTxBenpDdwZkK0AsiuxrnMc1zdX1Tay8lhZw81KtxR104+syd24wgirra+WrruiBBi9KBEXa1L6iDAmm4/wApMtcRFX+izoIPka5tgSANixGDKYjBB0BQh0vSNrtrfyWbV/hi2k+Sfc/2DbVvmizqpOAOZ5xMf04MmiGGKQguqk5XvU5nNP04Ms/23s+x1UnK5rZAXPN04MmlKGUQYuJumu0W3do0c5YpxyBR5ApQByA5ei9u0OuaYL854MmJ6opvjt/nXkwHjRsl+Uf4UVUw1bGLzUZ4p43zKEpo5mSI9bxBsgcmWlbqegtlayPr2qfKpGzE4ZX4abUKQptJcRy3+ptYT2GlXFlJtJ2znMY1z3kK4jyGeLp6eBGFKk6jX5thyJsyX5CIjUVcZVWxYiThorXoit0BxHnxjx6S5WRJ+aLXNbIC55unBk0pAySDF1UnBjCoROd04M6qTgDmecTH9ODJohhikILI3kg2sPDLtUeS/a5/H2qPGftZeaXLeqh3lbKrJtvUzaKyk1k6nsugMoyqnLNSj5EhGzTxPRasbhG+sZG4i80RfgknSML3VCYUhnrDcL+y9OR1R0WK5JflH+H0uXPQ/PmmHr4ZOaoeIQHNcVEcnJYF3cVg3hho1qN9GNccjGRWMk18UbQs7nDx1pFT+pc98lvtox7hva9rnPI9xHiY85mRwUnCjWVwjCm07wk0zQOFIm5r3hjW6mCefWmEQbygPoa8df6ahyDVHjP2svNLsD7Ad43kg2sPDLsf7Btq3zRbW/jM2pvyNrfyWbV/hi24jaQTU0c0iIqKiua6jtP+ECRqNirAG/Kwns2cAionJyIqp6Vc34HjYZjhEX3Ish6MkSiyvb9yuu4AK6MKTJuIpDlINbdf/VbWSv8AS2M1cWZNdjiyFT/JSs/9vWDPXHxqjd/w5L8SkGiqitcx3P0w4UyxlghQdL8FIvsim6nraWmoQdPUypsKuAp5ycR9GrISFDgy1mxmnXOMlGlVqxJwuCl50Go5NQW38lm1f4YtpPkn3P8AYNtW+aLOoBhSAUJWt6WTkIRAyRkL1AMsXskBawHSycrf23ve/wBQDLBinM1wOlk5CKIMUYy9QDDgO85Xs4l6CkmQ+pKz5OTH2qy6mRFler21a/Hrze52SG+mQdu5PWMBT46fPLzRrY0pU/xc1w1RpIldZWCq2BD4aa8nIjhReCGq3/OXG4DsY9FmRuBukgu9RmcI+HwPm8HDfQkf5sTRmj2/1/0vpZqLi6S0q7+y6I0YVFR5+FPD+R/c3hHpM0kjAWEN9dZTq8jdM14nK0snT9ekaQsdqoqNdnC+oobDQ9JOk8VdE1krTEmzreGlj0Gs61uVb0fBCma54uJXSjUumqLhbqrWUpLPVdLQUumYfRU+3GuqSbpJli2tsTU9lBswSHJOSPJidLJyEUQYoxl6gGHAZ5yvZ0snOoBhSAUJWt6WTkIRAyRkLkbyQbWHhl2qPJftc/j7VHjP2svNLsD7AduIWg+gU17TY9ObHpgCKWNHIsxOUo24Tmjv9YmWjHInrbLET+rf1mqLBucCJqLA1FD+odVUx1zXwEja41ANC/cJjVaior3M9t7xpwOlqbSk2MpBsKN4ySBE0xqIgkgNGVs0CzU0ZoGvWzWVx4M86tro3F7Vh1T0VGtrKwIAc3NSVaWunLiveNyvG1y8I7HuOiYKLll5pdgfYDvG8kG1h4Zc7dNwUKSEgyk7jDyTJDLC4AO3TciDJAI4snuMPJn8h7fS9um5DKyAJwpPcYeSYxpZnnB26bgpsUAmCf3GHiV01Pmmv+F0mvYa7o05LlS9X1Nc5Z3lO+IjEcIrU4DyvRd3UT6hPulzicP0a5siYSwkq5/IhCFX1Emt9MySmcBpiMk6khPzi9CWNri3dmkJbptXWyU+G2MgRA5arr+1aovYCcDJzBQNQgJ3GHkmMaWZ5wdum4KbFAJgn9xh526bgoUkJBlJ3GHkmSGWFwAYf7Btq3zRbW/jM2pvyNrfyWbV/hi2k+SfcjGkG9jmNVjWsWhd6qiLk/yl+JvzciZwdlJE13FD9Qn3S5xab6NXIuO/tdrJOU0mcGJiRdboFc44xPRqSmlZwzk+9pfSxV1BBuLCE0FTI4Q6mlPe8zOE+r4nzj1emuJVY5OcF9n0rG2Vsb3ZXoTigiJraeucHRKlbeG2r/DFtJ8k+5/sG2rfNFnd42dcAzXBb2iTg4hIBGyS93jYc7LFnsh7RJwP8V6vf7vGwwXWbveD2iTg5Y4DEjF7vGx1ceQ5xmdok53eNiWICI0LLAPTWM+PmnV51LEyd5TviReSouaOldt19RET6ZPulzjAnLVMVcReaNXa1TlKauaCmdBrbTZ8JYxY/NE43yXSTaXIvC46rouCg0ly0xJ85P67nPxLWcmJbS0TliI8xOWaxsx3OqrueHhfSvDoqCZO0ScHLHAYkYvd42OrjyHOMztEnO7xs64BmuC3tEnBxCQCNklyN5INrDwy7VHkv2ufx9qjxn7WXml2B9gO8byQZqJPTqO+bmm1Va4yZLX1Sj/HMOSDZpLGx7CMaRn0jpyOdM4xj/mKUuCd6ghdtbJ+rHXIR1iToMpJI3MLIcvFe6prYtECs0Pr2BpWolV0wvGKsb9knGV680AnGSxc9GMo9a6ht3sR/P8AxRV4gatZp2uLXRKmqPc2MKqiUccMavZGj5ZeaXYH2A7xvJBtYeGXOzYtb036+d5zrO4ftc7Nns9q/XzvOf8Ad87Nnvdq/QzvOdH3D91nZsSy6b9DO852bO2dOnv5q0Tg6r1Ex0OwmQHq6MG0CZy++qcvitx+oo80ZY9y0fQSvpyfKk5xkDyfpmRkRecOKu1ui+iM/FRFTkomap1aX2UgcFtZSmNWQnAmzaJ5Dau0VO0l0hCabs9MVpfVexOLOkK9iDhSuMlUqK4Nlxb1BKa5laQhpBnlLwy4dSaeI64tfe7V+hnec6PuH7rOzYll036Gd5zs2LW9N+vnec6zuH7XY/2DbVvmi2t/GZtTfkbW/ks2r/DFtJ8k+5/sGzXugJN3Jdc082FMrZCxZ+R5R4vyECxjm5I9UVPgtk/wjvzgpO6nRSRfpyvLk5xgCi0NNJwNiUABhY6ymu/p5SlXmRrXkewY9M1x6fTtRWnw/wBg2WFfCtYR4M9eD+mZp2sjv4Cf/wAj8DFitR5IvCCjEqLM0npLS9ER5oOW/ks2r/DFtJ8k+5/sG2rfNFnd5ONsTyHNC/tEbCRBwGLJF3eTgjOsnKE/aI2G/ivT7Hd5OAA2xZ7xu0RsJLJAI6MLu8nOhAZrTO7RGzu8nG2J5Dmhf2iNlpS1p4TxzL7hRUzfUaju9O3WnCoO1wEmRG+QhWo1+RhSI5vtK1yf3Zt9UNVzgNP5SdRVr/pT2+ibITOK4vd0e12aY0Fb6phrYRrLhTErKC2nqrkRiuTR2i6Gnpq2UDtEbO7ycbYnkOaF/aI2EiDgMWSLu8nBGdZOUJ+0RsN/Fen2O7ycABtiz3jdojYSWSAR0YXd5OdCAzWmd2iNnd5ONsTyHNC/tEbCRBwGLJFkbyQbWHhl2qPJftc/j7VHjP2svNLsD7Ad43kg2sPDLtBjR5iyIsrUnBSmnqQ9DqHRWptLuetmioqc0VEX+2EKP/g+XKIxwycJbBYGuoDPp2bfTOLnExOehrJc4TfPR5sUDJbCRSPCQKPjk0zLbL0xRSG7RvJBtYeGXao8l+1z+PtUeM/ay80uwPsB3jeSDaw8Muduh4WFFAJ5Wdxm5GkmlmYA/boeTBMgCaWN3GbkP+Q9zqu3Q8lkJAI0UbuM3I0YMsLTn7dDws2SEhBD7jNzt0PCwooBPKzuM3I0k0szAH7dDyYJkATSxu4zcgOdNc9ZFxw70Vc+t57jgrXAL6YD+D1un29ScM7bTVCt2esnrU2lbZo1zXtRzfo3DeUxq5xK+eg7vOEL+embQeIqtVFbryAldrO+C3hjdST6MgCb3GbnboeFhRQCeVncZuRpJpZmAP26HkwTIAmljdxm5D/kPc6rt0PJZCQCNFG7jNyNGDLC05+3Q8LNkhIQQ+4zc7dDwsKKATys7jNyNJNLMwB8P9g21b5otrfxmbU35G1v5LNq/wAMW0nyT7n+wbat80W1v4zNqb8ja38lm1vUpfaRsapeXrb6X6At1uNE0Mtfo3TeRY781+z16G1I3OED+dVfj24vxvRf1UtODs353lduf7Btq3zRbW/jM2pvyNrfyWbV/hi2k+Sfc/2DbVvmizqpOAOZ5xMf04MmiGGKQguqk5XvU5nNP04Ms/23s+x1UnK5rZAXPN04MmlIGSQYuqk4MYVCJzunBnVScAczziY/pwZNEMMUhBdVJyvepzOafpwZZ/tvZ9jqpOVzWyAuebpwZNKUMojBa3rO06rt47eBNohKu7qH/RtxogAvzWrPXo3UqZwbevPVIduMrEUOly5wcN6NbjFnTgzqpOAOZ5xMf04MmiGGKQguqk5XvU5nNP04Ms/23s+x1UnK5rZAXPN04MmlIGSQYuqk4MYVCJzunBnVScAczziY/pwZNEMMUhBZG8kG1h4ZdqjyX7XP4+1R4z9rLzS7A+wHeN5INrDwy7VHkv2ufx9qjxn7WXmlzjDXciU9szhJapV63hjd9G0G3oX5qEPUab1CDNA6vhaVfZGmTuMRlaray81Jd6kKIttwVqzyNSyrbeN5INrDwy7VHkv2ufx9qjxn7WXml2B9gO8byQbWHhl2P9g21b5otrfxmbU35G1v5LNq/wAMW0nyT7n+wbat80W1v4zNqb8ja38lm1f4Ys4lUiXGi7YQ40s0GRGnx4M0E6BEmxvoGZ7gSDx4UlR5EdwV5hFlHw/1dqKMGZXU3A4/rR9/FrK+mD26t2P9g21b5otrfxmbU35G1v5LNq/wxbSfJPuf7Btq3zRZ1AMKQChK1vSychCIGSMheoBli9kgLWA6WTlb+2973+oBlgxTma4HSychFEGKMZeoBhwGecr2dLJzqAYUgFCVrelk5CEQMkZC9QDLF7JAWsB0snK39t73v9QDLBinM1wOlk5CKIMUYyqeO5FRdR1PYNQWlUnCPV9U7TMWnn/GWdECiosmwkyebcj+QFW3cJ1bd28B3CeSBNA0qP6gGHAZ5yvZ0snOoBhSAUJWt6WTkIRAyRkL1AMsXskBawHSycrf23ve/wBQDLBinM1wOlk5CKIMUYy9QDDgM85Xs6WTnUAwpAKErW9LJyEIgZIyFyN5INrDwy7VHkv2ufx9qjxn7WXml2B9gO8byQbWHhl2qPJftc/j7VHjP2svNLtxqo/ZLSXwla1ycnVl9e0qNbVwOMOu4XyLF482LGMSaDjxTr5QuOWkP9v45aUVv+EjjLpo39n4xQGeLM4v3pVVINjrjV9q1WSlVGoqroGonUmlocWfgPsB3jeSDaw8Mu1R5L9rn8fao8Z+1l5pdgfYDvG8kG1h4Zc7dNwUKSEgyk7jDyTJDLC4AO3TciDJAI4snuMPJn8h7fS9um5DKyAJwpPcYeSYxpZnnB26bgpsUAmCf3GHnbpuChSQkGUncYeSZIZYXAB26bkQZIBHFk9xh5M/kPb6Xt03IZWQBOFJ7jDyTGNLM84O3TctYFFd1fabi04NUhFV9PN4Oa4i/YlaH1lCV6GJVWwfuqE7f79D8QRV/pkOYReQw6f1BI+QI+gdbSla0UXhNrEpPRM0jw10vp04p8+TGNLM84O3TcFNigEwT+4w87dNwUKSEgyk7jDyTJDLC4AO3TciDJAI4snuMPJn8h7fS9um5DKyAJwpPcYeSYxpZnnB26bgpsUAmCf3GHnbpuChSQkGUncYeSZIZYXAB//EAFAQAAIBAgIECQcKBAQEBQQDAAECAwARBBIQITGxBSJBUVNikZKiE0JSYXFy0RQgIzJDgYKyweEGMHOhJDM0YxVARMIHVISToyVFVWR0g7P/2gAIAQEACT8Ar0G3aOtuOjpBuOjqfro6Mbzo6286Okbfp9Bt2jrbjo6Qbjo6n66OjG86OtvOjFQYWDyj/STSLGp9QLbTXyrhBx0Mfk4+9LauDMDg0PSl8Q4/JXDssa+jDHFF+Va4d4UcnnxcvxrH4pjzmZzvNY/FKfVM43GuHuFVtstjJhbxVw7iJPVOqT9vlAawWAxiefqaCQ/epIrBYvg9+V/9RF4ONWPw+MRYxn8i4Yp767V0dbedHSNv0+g27R1tx0dINx0dT9dHRjedHW3nR0jb9PoNu0dbcamTvCpUZ2RgAGBJJGwVBJ3TUbIgvdmFgNXOamTvCmEjBwSE4xtb1VBJ3TX0ebLlz8W9r89TJ3hSmRQgW6DML3PNUEndNOqOL3VjYi5qZO8KidlZ2IIUkEE1BJ3TUyd4VKjOyMAAwJJI2CoJO6ajZEF7swsBq5zUyd4UwkYOCQnGNreqoJO6a+jzZcufi3tfnqZO8KUyKEC3QZhe55qgk7prEtiMahObCYa0kg9/kSoYeCoOcWnn7zjLWJmxM52yzOZH7W0bBXBc+JTprCOEEHpHstcJ8HYQEbEz4hx2BRX8UP8AgwXxev4om/Fgk/R64fwMr8gmgkh3F6wEGNUDW2ExCP4HyGsFicHISQFxETRXtzFtRrYdhqV4ZozdJY2KOp51ZbEVH/xHD9KLJiUG56x8cqpqkQnJJEWJ1Op1ipk7wqJ2VnYghSQQTUEndNTJ3hUqM7IwADAkkjYKgk7pqNkQXuzCwGrnNTJ3hTCRg4JCcY2t6qgk7pr6PNly5+Le1+epk7wpTIoQLdBmF7nmqCTumnVHF7qxsRc1MneFROys7EEKSCCagk7pqZO8KlRnZGAAYEkkbBUEndNRsiC92YWA1c50dIu/R1d40dGd40df9NHSHcNHV3DR6C7tPSLv0dXeNHRneNHX/TRirTsS0eFj488gtyJ+p1Ux4LwHRQN9NJ/UlrCy4iY7IYIzI/YtYGCB0TOmGmnUTy+pVF7H3q2MLisLnjU2kxLnJh4vef8AQXNAcLYwdKLYVPdi878dfVUWVRqVR6gNQ+aKUSRMuVo3AdCOYhriuDjgJ2+1wLeS7YzdKli4VgHmIPI4kfgOpqjeKaM2kikUo6HmZWsRWJfD4mPY68o5VYHUynlBoJheFUW7QeZMBteG/wCWujXdp6Rd+jq7xo6M7xo6/wCmjpDuGjq7ho9Bd2npF36OrvFReIVHZEYMxuNQGs1L4TTZ5HtYWI2G/LUXiFLkUqVB26zr5Kl8Jrj5L5uS19m2ovEKORy2YDbq+6pfCaTNG1rG4GwW5ai8QqSzooVhYmxFS+E1F4hUdkRgzG41AazUvhNNnke1hYjYb8tReIUuRSpUHbrOvkqXwmsbFBhoiQ8klxrOsKo2sxtqAqI4SHYcXKAZ29xdYSsNPjcSzZ55SbhSdrTSvqFYo46U/wDSYUmOD8T/AF3qXDYCFf8ApMHGDIT61Tl940JsJgcUfIxYLDIGxM680jrrJblUV+Hg2F9Q/ryL+RKijhgiGWOGJQkaDmVRqGggUCf7UoFN2Ux7aJ0E9tMawKTlQRHOvEni9yQVIcdwUDrnC2lg5hOo/OKdkkRg6OhKsrDWGUjYRyGpFi4URbRS7FxQG6SpfCai8QqOyIwZjcagNZqXwmmzyPawsRsN+WovEKXIpUqDt1nXyVL4TXHyXzclr7NtReIUcjlswG3V91S+E0maNrWNwNgty1F4hUlnRQrCxNiKl8JqLxCo7IjBmNxqA1mpfCabPI9rCxGw35dHoNu0dbcdHSDcdHU/XR0Y3nR1t50dI2/T6DbtHW3HR0g3GlGJ4RkW8WFBtlHpynkWsUZXGqNdkcQPmRJybzXlcLCQGTAIcs7/ANboh4qSLB4Uf6fCYdONIedE5Tzuavg8M5yRwQv9PMfReXkHpZaiWSYDM7HiYfDIfOY8g8TVefHSJlnx0gtI49FOjTQfurij+/8ALAIIKkEXBB1EEHaDURHB174rCjWcKT56f7R8NMVdSGVlNipGsEEbCKdRwrAlw2wYmNfP98ecNHoNu0dbcdHSDcdHU/XR0Y3nR1t50dI2/T6DbtHW3Gkk7B8aV88gKAkCwLaqePtPwplKpe4XWdeqkk7B8aBVlOcl9QsNXJfnp4+0/CuN5W1smv6vPe3PSSdg+NEKqjJx9RuNfJfnp4+0/CgxdNpXWNeukk7B8aZAshLgEm9m108fafhSSdg+NK+eQFASBYFtVPH2n4UylUvcLrOvVSSdg+NJn4SxJPydH2KBqMrj0RRmxeNxc3vyzSvvJoR4jhk/iiwXUi55PSegs/CR1lW1pBfzpedjyJU7zTya5JpTckDco5hqFHJh41/z3F0w8AOuVhys/ItQ5IV1u7a5Jn5ZJW5WOjWefmo3P81VZWBVlYXVlOoqwO0HlFAngnGORDynDy7TAT+SpXinhcPHIhsyMNhFJkx+GsmMhTZm5JB1HpXzyAoCQLAtqp4+0/CmUql7hdZ16qSTsHxoFWU5yX1Cw1cl+enj7T8K43lbWya/q897c9JJ2D40QqqMnH1G418l+enj7T8KDF02ldY166STsHxpkCyEuASb2bXTx9p+FJJ2D40r55AUBIFgW1U8fafhTKVS9wus69WjpF36OrvGjozvGjr/AKaOkO4aOruGj0F3aekXfo6u8U4jhhjaSVzsVEGZj9wriCQ2jTooU1IlRf8A1XGRXiDbcJA+6V/OoovCE6XjL2Agj6UhtregKbPclmfMHLMdZZjyk0PlGKxUqwNkOolzYQqec+ceQURJMxEmLxHLNN+iLsQaD7T/AD9Z5uQVh/LYTExmOVAOwjmZTrBo58oEkE4FhPC2pX9R5GFXZF4mIiBt5aEnjJ8KkEkE/kpYnHnI9iDo6u8aOjO8aOv+mjpDuGjq7ho9Bd2npF36OrvFYjwfvU2byfHy5bXy66w/j/ao8mfzr3tbXWI8H703lc3Ey2y7dd+XmrD+P9q+i8l+K+bs5qxHg/el8rm4+a+Xbqty81Yfx/tUmTP5tr2tqrEeD96hzeT4mbNa+XVWH8f7ViPB+9TZvJ8fLltfLrrD+P8Aao8mfzr3tbXXCMUuPxjpHNAmt4oPrktWC+WwQSiRsNn8mJSutQxIbi31mpYODI3Lf6VLykHnlkqd8RiJGGd5WM0rt673JNcFY1cJGAZJ/k7pEgJtxmIAr/VRYCVsF6IbZL+PJo+sf7DT95oiyKWd3ICqByknUBWNnx7oSGGBh8qnfYqpqbE8HSMbA42IJEfxoWAr2+0H+R5ovQjOPj/1WLdc6QEi4jjU6mkr+I+FSzejiXjXupYVwlicZHDI0kXyl/KujMMpyu3GAPNol+l4LPyiAelA5uV/C9Yfx/tUeTP5172trrEeD96byubiZbZduu/LzVh/H+1fReS/FfN2c1YjwfvS+VzcfNfLt1W5easP4/2qTJn8217W1ViPB+9Q5vJ8TNmtfLqrD+P9qxHg/eps3k+Ply2vl11h/H+1R5M/nXva2vR6DbtHW3HR0g3HR1P10dGN50dbedHSNv0+g27RNk4QdP8AETrtw6P5qc0jUSzMSzMTcsTrJJO0msHJiZ7ZmC6ljX0pHOpFrFPj5+XDYYmLD9/670ODeCgRbJEirKe6C9Lj8YmKws0BLJkUZ1IBGc0Tc46KBz6px5Jt9ebqradMxjw0ZyqFF5JpDsjjHK7U3kMCrXhwETExr65Okeo3ml5I4kMjavUoNcDcIheUnCS2/LRcx4bHyQYXOCCIgoJTXyK38j6txf7jWOlgbFYqeb5Nhshm47khpZDcCv8AiUR6RMVc+NSKxY4SToHAhxP4fMekeOSNikkbqVdGGoqwOsEU+SGZzhJ/6eI4lz6lNm0dbcdHSDcdHU/XR0Y3nR1t50dI2/T6DbtHW3Gkj7D8aVAshCEgG9m1U8naPhRYumwNrGvVSR9h+NWVFGe6ajcauW/PTydo+Fcbyt759f1ea1uekj7D8aJUqclk1Cw18t+enk7R8KVSqWsW1nXrpI+w/GmfPIA5AIsC2unk7R8KSPsPxpUCyEISAb2bVWdxhIsyIx1PIxyohtyFiBUplnnkaSWRtrO5uTT+QwkGU4rFEX8mG2Ko5Xak+SYINqUcefEy8rHpJD2CicBhjqyRNeZx15RuWhrO08p9p5a9IVy8M4UD/wB8VsDHt0sqqBrZjYKoFyT6hRZMBhw0WBjbzYuWQ9eSs6YSVQ8GCUlJJ0Pnyt5iGsNDhIBsjw6CNf7azUr940xJ/mIicMxJ9FJs+UgbIZdytQdGFwQwKsrDUQeYg1I5kxeEilkAOyQqM4+40WLpsDaxr1UkfYfjVlRRnumo3Grlvz08naPhXG8re+fX9XmtbnpI+w/GiVKnJZNQsNfLfnp5O0fClUqlrFtZ166SPsPxpnzyAOQCLAtrp5O0fCkj7D8aVAshCEgG9m1U8naPhRYumwNrGvVo6Rd+jq7xo6M7xo6/6aOkO4aOruGj0F3aekXfR/1WJed/dgHxekLyOwVFHnMxso+8miDFg0z4lk+ticXJqb8THUKYGQjKiL9SFOSNPVv0+arN3RehfLjFxB9kCmWtp1nS1pMSYsGD6sQ1n8IqAPwZwe44h1pPiNqR+4m16NyTcn/kEtDwnCMZ6hLfJLR/0ONng71ph+eurvGjozvGjr/po6Q7ho6u4aPQXdp6Rd+jq7xUXiNR2dFLKbk2IqXwinzRte4sBsF+SovEaGRy2Unbq++pfCK4+S2XktfbsqLxGmyKVDEbdZ1ctS+EUueR73NyNhtyVF4jUlkRiqiw1AahUvhFReI1HZ0UspuTYij/AKfg2Mfikd3oXSGZ8U3/AKZDIKa6YNRJL655RvRfmbVw729rcX9aW6YHg5gv9SdhGPmStCJSjpMgzGKSM3V7co5xT5xAhMknSyuczv8ANnX5Z8m+VeR5fI5/J5+9/Kcp8uxqYOA8nlnUsobmBtbRtgxssH3Tpm3pUhGvDTjxo1Pmja9xYDYL8lReI0MjlspO3V99S+EVx8lsvJa+3ZUXiNNkUqGI26zq5al8Ipc8j3ubkbDbkqLxGpLIjFVFhqA1CpfCKi8RqOzopZTcmxFS+EU+aNr3FgNgvyaPQbdo6246OkG46Op+ujoxvOjrbzo6Rt+kgDybazqGypxPhwkMKyr9VjGgDZecXrYOC8Ue3KKvmxGJlk7WsP7fM+0niT++Y7qFnxXCAi/Bhk+L/wAk29Qpj8kkwsuExS88Qk4/YHzUQbco5RyH5iT5cfI6LJEAViEdgzv3q5NP3mnZHwfCWFn8p6F7x5qsJZkK4hfRnj4sgr7DG4STxlK+24MftjlQ11tx0dINx0dT9dHRjedHW3nR0jb9PoNu0dbcank7xqV2VnUEFiQQTUKd0Uio4tZlABGvnFTyd40xkUIWs5zC9xz1CndFfRZs18nFva221Tyd40okbORmcZjaw1a6hTuipGRBayqbAauYVPJ3jUSM7IpJKgkkjaahTuisUyRopd3eTKqqouWYnYBU8ycFbJZCSHxfwi0bTwPjLeE1yoD8zzsSxP4UocaSKWcn+tKzfyNoGhM0/Bz/AC1F9NFGWVe5UmbHcGIsMnPJBsilH5T8z6kWNngJ/rxavyUfpooxhcSvozQAKe8LMNPLrqwTGYZ4cx81yLo33NV4xjmORG8zHQain4xXRQN3Z0qVYsJJFLA8r/UQybC9IqMLWdQAdZ5CKnk7xpjIoQtZzmF7jnqFO6K+izZr5OLe1ttqnk7xpRI2cjM4zG1hq11CndFSMiC1lU2A1cwqeTvGokZ2RSSVBJJG01CndFTyd41K7KzqCCxIIJqFO6KRUcWsygAjXzjR0i79HV3jR0Z3jR1/00dIdw0dXcNHoLupgqqCWYmwAHKacrwUj8eTYcWy7oxyClLMxAVQLkk7AKIzzIzEDWEKm2W/Ka2TwYyI/fCTWIMrxsyFYB5QDKSPrDVWDxVue6VifJyHUEmHkyfYTqoWNbBiXHalbP8AhsQ7Lj+SGFKW9RGo+o+o1IYozefAsRmR4JDxoJOcLsNRmGWN/JYrDk3MMu3UeVG2qdIvP5IT4f8AqwccD8QBFSZODeEskc5J1Qv9lMdzULEGxGjh3g2GRNsbTqzr7Qt64fjc+jFDLJuWhiMPHNJHOrSKI3GIQDNKoBNrkXoBZxgnTGR8iYmAq76Jr4N8qYLFOf8ATnopD0VCxG0V0Z3jR1/00dIdw0dXcNHoLu09Iu/R1d40eg27R1tx0dINx0dT9dHRjedHW3nR0rb6m/w6HLjpl+1foVPoDzqBJJAAAuSTsAFAHFMPaIgeQdbnNG7QKxf1GS1lokXBBsSNR1EauQ1h5cRNbVDBG0j91Aa/hrhO39GsNLh51HHhnjMbj2q1O0mD2a9bQ+tededa1mBknBGwqNRI+41twGMng/C58sn5v5EgixOJxohExQOERULnU3K1R8HYwcpkgMTdsRFfwzCT6saw3pUOHgw2GZmggiF7F9RLO2smgRAUw0F+RpQS/aBpNiDcVHbg/hHPPhxyI32sP4TUpPCGDi+gdtuIwyb3irzSD2VCwwGJneXCYkLxGSQ3yFuR0rNK7bFjBcn7lvSPwVgtp8r/AKlxzJH5vvNUAhwuH4GxQjj/AA3JJ5SaQvIykhRtOUXNqsQRU15gLYCd9sg6B66Qbjo6n66OjG86OtvOjpG36fQbdo6241MneFSozsjAAMCSSNgqCTumo2RBe7MLAauc1MneFMJGDgkJxja3qqCTumvo82XLn4t7X56mTvClMihAt0GYXueaoJO6adUcXurGxFzUyd4VLbhHGhyXXbBA/n++/m1qAFLaVheFD5inzj1jX2UZYes8g7aYs7ElmO0sdpqR4OCsM+SaZPryydFF+prCw4HCRC7iPiDV50jnWT62NY7CYlwLlYZ45W7FJNR/0Zx/m4d/TQ7xSgYnCSmOS2xuUOvVcaxWvyLNh9fRyLdeytk+DWdffwrZD4W/kQ+Vw8tjqOV0ddaujcjCuF8NPHyJi1MMgHvJmU0nB/t+ViuFMPBBypg7yzH8bgKtYZMPhYFyxRJsHrJOsk8pPzHEZYiTDzdDOn1H9nI1GTBcJ8H4j8UUqb1PYwoLFioSExuGH2Uh5R/tvtWjYHaOQ+0VZAfQAT8ttH/4nFfkrzUkPYlLq2zoOT/cA/NTMrqQyspsVI1ggjYRWvhfBFRiFA1ypsEwH5qgk7pr6PNly5+Le1+epk7wpTIoQLdBmF7nmqCTumnVHF7qxsRc1MneFROys7EEKSCCagk7pqZO8KlRnZGAAYEkkbBUEndNRsiC92YWA1c50dIu/R1d40dGd40df9NHSHcNHV3ChmEfFij5ZZm+pHUplxOIfPK/r2AAcgA1AUt8PC2pTskccnuro+1mjW3qHGoXxGKnjgi9+Q5RQth8JGIo/X6Tn1sdZrAYmX+HeD3kEABCwkRbZmzlc70oVgQyOnFYHaCCLEViPLGYiLB42U8fPyQzHlzcj1GVMyPgsR78XHjNMieXtmcrdlsCOLzHXX1ZHmgI9UsRH/Ix34VwkVsg/wCqhXzP6ieZRDOoKPG2pZom+tE9SFoJOKVb68Mg+tFIOR108uAdO+QlebBKdwoA+o7DQPyeUnyfUPKh/Sj9NA2tD9WRDqaNvUactBiUzi+0HYVPrU6jXX/TR0h3DR1dw0egu7T0i79HV3iovEKjsiMGY3GoDWal8Jps8j2sLEbDflqLxClyKVKg7dZ18lS+E1x8l83Ja+zbUXiFHI5bMBt1fdUvhNJmja2VrgXsLctSXwHB5aKGx1SSefLWoubs3oKNrGlyxxqFUVt5BR/6nX3DQuFeeX8UULFavkkjZHsSpyuMpsRrGqlEEb/JsDAibEid9a9i1hRivKzvFhYXJEapFqaQ5SLkmg6cG40EQgksYJk1mO/iSsUIJ8THhsUZ8mcLPDdHOUEV/EkrjmhwgT87GoJHxLJkbFYh/KTFeYbAo/5KHnfhKBB24pR+elE2HmCrisMTZZ0Gwg8jr5rVN5XDuSpBFnicbY5V5HGjbPJhYB+KUGuSBR3m0fUcbeVSNjD1ihaSNsrfEeo1JbBcJOPJHosT8JK4+S+fzbX961ReIUcjlswG3V91S+E0maNrWNwNgty1F4hUlnRQrCxNiKl8JqLxCo7IjBmNxqA1mpfCabPI9rCxGw35dHoNu0dbcdHSDcdHU/XR0Y3nRKUx/CeeCEjakf2slagBS2nxADHnVPNX9TWwaPs5Y3+69jvrUoxqwseQLODEfzVtHFrZBwjhJH9hJStnyQt3pGNOscr2kw0rbI549aMdxqFocTCs3lY22oXmZv8AkCc3PW0aTZhrBpBHhMZAuMgiGyLOSHjHqDCifIDBwCT+qZDk0HXiOEwx92CMmvOlRO6t9I48ItJ64+f8NEgjYQbEHnFMPlceWDFrzyp5/wCMaOjG86OtvOjpG36fQbdo6240knYPjSvnkBQEgWBbVTx9p+FMpVL3C6zr1UknYPjQKspzkvqFhq5L89PH2n4VxvK2tk1/V57256STsHxohVUZOPqNxr5L89PH2n4VJmwkH+GwnMYoyeP+M3alvDFaSX1gbF+86Ng2+3RtliZR7dopij6ipBsVYawfuNWBxMKmZR5kycSVe8KYIMXAURzsSQcaNj7GFQyQzwYdopI5BlZWSRh/yMhE3CeJaHDKOUouYk+rYK1tW06Z4oIE+tNM4jjX2s1NnwkEKYXDP6aR62f8TGrGThLES4hjyhUPkUXw6B/psDJP9+If4JX2skkn3XyjdpAIIIIPKDtFXKCzRE8qNs7NlPbBcJ2w03qk+yekl7B8aIVVGTj6jca+S/PTx9p+FBi6bSusa9dJJ2D40yBZCXAJN7Nrp4+0/Ckk7B8aV88gKAkCwLaqePtPwplKpe4XWderR0i79HV3jR0Z3jR1/wBNHSHcKfLisefkcPOA447d2tQAoWln+lf1A/VH3Ctp1D5gtHL9LH+LaPuNS5MJwk4MDnZFi/hLQsRqIP8AyQ/0WAgxMA53E5dqkEmFxSCWGQbCr6+0bCKBJ9WuuEMPg1tcCZ7O3uoLsawBlbZ8rxgsn4IfjT4vhbHHWsQ1iP1hBZI1p0xc+plwURPkE/qttkNKqIihVVQFVVGoAAagBQ1nZ99G6Qz/ACaP3cMuSvs4UB9trn5g4+HNz64229hokUbzlPJYn+tFqY/i210h3DR1dw0egu7T0i79HV3isR4P3qbN5Pj5ctr5ddYfx/tUeTP5172trrEeD96byubiZbZduu/LzVh/H+1fReS/FfN2c1YjwfvS+VzcfNfLt1W5eatUPBkIjt/vS2d6HELZpPcTWdGwah8wfTxEvF6+dPxUtwdRBqdgyWSHhI6ww5FxPrHSUyzxOLpJCwkRhzhluKxKYTDJteXUSfRRdrN6hVuDMItyrFFkxLjncm4T3VpMmIxGBw8s6c0jxhj/ACxqPLpjMmI4NziaNdr4aTWSPWhrhfGYJSxYxxuyoWPKUYWvXDPDMw5oM6g/+0orgWaDMePPjWEH5yXNcJmc8uGwYMaffK+usHDhMPypEts3rc7WPrNYuLC4YfaytYH1KNrH1CsDafEzCGLF4pbuSeWOLWFA9J6xUuL/AOHYSSZ55nLPPKNeYlvTc6hRLPNMDIfWTnc1ym/zBdGBVhzg6jWsxOVvzjkP3ipciYuP5TB/Vi1OPxLS+VzcfNfLt1W5easP4/2qTJn8217W1ViPB+9Q5vJ8TNmtfLqrD+P9qxHg/eps3k+Ply2vl11h/H+1R5M/nXva2vR6DbtHW3HR0g3HR1P10f5OFwjzye7EC5ps0+IleaU87yHMaGtmEKH1Lratp1D5wAnOuSPYJOsvM2+gVZTYgixB5iKxM+FY7TBK8X5CKnmnltbPNI0jdrk1GH4NSQjDYbkxTodbP/tKaNzmB/kvrpgaxUyY3DR5MVhVAkTE4Ya7iJrgvHXAsE46XBymHwSZhScJYU8ueASDtjNfxBEjDpIpot61/E/Bn4phX8U8G/dihXCGGxuRlWQwSZ8pfYDU+LxcsTtG6YfDnU6GxGaTKK4NhwQ6fEEYiX2hNSCsbNiZulmbNlHMo2KPUKhKcI4qPLBE+3DQPukko8fhCfykv9DD/F62QxWHvSat3zhqkQxv7yax/aif8HiUke20x7HX71JFMGVolIINwQSdHW3nR0jb9PoNu0dbcaSPsPxpUCyEISAb2bVTydo+FFi6bA2sa9VJH2H41ZUUZ7pqNxq5b89PJ2j4VxvK3vn1/V5rW56SPsPxogT47FRYMAdGPpmrkF6HGSMF/ebjGuQfPiu4FhIpyuPvrFK6qrNlkWzWUX2roFsmEMBHrgdkNc38nm1ffXBTY04wyAO0vkokKchIBJY1dFxEeYrfXFKup4/wGpBwdwi5LOQt8PO3PIg1qx9Ja4LleAH/AFOG+nhIHLdNYqQE8wOvT50WCbslIrkxmIB+6VqwsuMnPmQrnt62OxR6zRixGPSzQYZOPDhm9NukkHYK1sx5ec0+fCxkYXCHnhh1Zh75u1DjTuZT7uxfnC7RgTL+Db/athqUmXCxHByW/wD1zlFPJ2j4UqlUtYtrOvXSR9h+NM+eQByARYFtdPJ2j4UkfYfjSoFkIQkA3s2qnk7R8KLF02BtY16tHSLv0dXeNHRneNHX/TQdUGHkxL+9O2QfkoXDzLm90cY7q9tbT/I2MCp9jaq+tGxQ+1Tajd8HjROv9PFD4po5NMpXg3hfBqsUjbMPioXKdxwQGoWINiPmA3FtdQeWwswGZdjKw2Oh5HXkNCTF8EYoicOg1sp1DExj0+SRKxMeJwsouk0ZuPY3Krc6mmKnnBtXBWCxTHz5YVL94WNcEPCT0OJlQVJwqnu4r4pUmMZ8QiI5xEok1I2YWsorgHCyTzStLI0peTM7m5NmaoYoIRsihRY07FAGh8uO4Sz4aDnSP7aX7hqFavKEJ7qjafuFCyKAqjmA1D5wurcU+w6jW2N2Q/hNqP8AlzRYpB/VGRvyaOruGj0F3aekXfo6u8VF4jUdnRSym5NiKl8Ip80bXuLAbBfkqLxGhkctlJ26vvqXwiuPktl5LX27Ki8Rq4ihlTDoP6KBT4q+xgY/e5y1ym38ocTErnHvjUwpwIeEo2wT3OrO/HiPeGjztemLPiuDWOJjHK8VrTIKmL8I4SK8Uj7cVhhveP5zJHjIGMmCnfYknKjHo5OWp8VwZj4X8niEU2NxySLscVwbg8cB58ZOGkO9a4I4TibmiMUw3rX/ABKP3sL8GqfHn/0jUvCj+zC/Fqw+Liw4mMStiUVDIVGsoATqGiVYoYo2klkb6qIguzH1AUGTD2EODibbHAuz8TbWocecWj9UfP8Ai/kDVIEl7wprHF4KeHuATD8lS+EUueR73NyNhtyVF4jUlkRiqiw1AahUvhFReI1HZ0UspuTYipfCKfNG17iwGwX5NHoNu0dbcdHSDcdHU/XQb/KsZPPf+q5euVo07AWrkG/+VYSA54m5n+B2GmaKaNwVOwpIhuOwirAYyASMvoSDiyJ+FhXm6TYg3BpjhsHPifK4R4x/pMTtMPunatBYsVCQmNww+ykPKv8Atv5vzmbDY6JMkWNiUMwX0JV89Kw0HCEfpYWUBu5LlNfw5wsCObCuw8Nfw7wuf/RyVwFPEp87EPHCB3jXCcEMNwTDg7yysP6jAKtQLBhoIxHDEmxFG8850PqQrJwiRyuNaQfq9HVK9mPVGs0ABsAHIBsH8jz4WXuN+9bPl8KH2SnyZ/No6286Okbfp9Bt2jrbjU8neNSuys6ggsSCCahTuikVHFrMoAI184qeTvGmMihC1nOYXuOeoU7or6LNmvk4t7W22qeT6DCzTfWP2aFq5FArz8TIewAVz/y/tolkb3tanttT6p82MwX9Rf8AOj0cmmAT4XEpkljPKOQjmZTrU8hqfOCGOFncfR4vD+fFKPzijlKkLiMOxvJh5D5rc6nzW+exHsNO3afmFX4UxKH5HD6A6eQegvJzmnaSR2Lu7m7OzG5ZidpJpsskbZlPx9RrURYSRnbG3wPIf5HmzOveWtsE0cw9sbBqiTuipGRBayqbAauYVPJ3jUSM7IpJKgkkjaahTuip5O8aldlZ1BBYkEE1CndFIqOLWZQARr5xo6Rd+jq7xo6M7xo6/wClcnBmJHeQro5TK3jP8s+WnH2aHUvvtyU13bm1AAbFUcgFSeTxOGmSaF+Z0Nxf1HYa1Rzrx4+WGVdTxN7praN3zIjJBIQwK6pIpBsliPI4qbLLZjh8SF+gxsHKrL+dOSrYXhIDj4J21tyl4D56/wAkEm16MXCOO2GXbhYfv+1asS+IxU7ZpZn2sdwA5ANQFOYcPYhJMty79UcqjlNIFcC4I1q6+kp5RT5ZBq9RHosOUVxJlF3iP5l51+f5uJT+4Ir0DR1yQI5PvC9dXcNHoLu09Iu/R1d40eg27R1tx0dINx0dT9a2nC27WGjo2/ux/kyZSRdUGt29gq+HhOoqh47e836CrACocsR+1lORPuvrNJkkTaNoIOxgeUGo3xPB2JI+V4YHjatksPNIvirFx4rDNqzptU+i6nWjeo19U/2+ZB5XDuQwscrxuNkkTea4pjieDxIphx8QK5G5BKBrjeoW4RgAFsVHYYoD18ktcIRYlh9aH6k6e9E1mrUR8whIlF2kchEA9bNYVI/CuJHmYXVD+KZqnGHwR/6PDXSM/wBQ7ZNDlo+SJAW188luT1VKkkYst11ZbeaR5tA2vdHH1o29Jf1FAXtdHH1ZF9JaYo6G6spsQasmK7Fl9a+vnHzuSaLfXomuXBYc/wDxiutvOjpG36fQbdo6241MneFSozsjAAMCSSNgqCTumo2RBe7MLAauc1MneFMJGDgkJxja3qqCTumvo82XLn4t7X56lQn5ITYHmIOjmI7GPz3VI12uxsBS5R0zjWfdU7KYsza2djcn2k0ojh6aTUv4Rtak8vMPtZQDb3V2CiSaISVLmGX0SeQ9U0hSWNsrodoNY2bCYj04mtmHM42MPUa4NwnCCjUZYD8ml+8a0qLhLB8+eETKPxRGv4gwy/1kkh/OtcMYPGGIDLh8NMrzSudQVRWMj4Oh5IcNGp7ZJASa/iDFm+ohxG6n1EMtRQRs21YIxEl+cIuofdRIdCCrAkMpHMRrFcKnFRJsjxqCfxmz1wLwdI3PHJLF8a4CwKNzvPK9T4LBf/xsMN8pesficYwJI8vIXC+6uwUwaw2LrsB7Ng0G1I6qfOKkDtNaxslTkdOUfCmuLA2O0X56By3urD60bektDbrjkH1ZF51/UVz3FN9Psjk6Tqt1t/zeWaLfXomoZCBgsP5p6MU6o4vdWNiLmpk7wqJ2VnYghSQQTUEndNTJ3hUqM7IwADAkkjYKgk7pqNkQXuzCwGrnOjpF36OrvGjozvGjr/pXLwZiT3YydHI8o7GPzrTYgeYDxU98jcKkzkfVGxV90VE0shF7DkHOxOoCsuIm2hfsk+7zjR0uFPNtPZUeWaMWDMdci+if0NAo1iCCLFb1wfBDwpgMJHDNHGTBPHkGS4KWzx1w1wnH/UMUw/KK/ik+7JgwdzisXDipHwqziSJCmUMxSxBp3WDMVRU1M5G035AKmniPtDjxU0eIXmByP2NUbxv6LgqdHD54N4YJIMOMjBw09zq8g6kEe61cL8GqvuTXrh+RxyphcOE8UpNYXPFFxPLY2V5y7HzEjFgz1hIeCuB8wy4OBEiMoTY2IKbfd2CvocP0rDb7g5ahBk6V+M5+H3VYqRYhtYIPIQa/ymAki9SNyfcaYq8RZARzCrJJ4W9nMajEkTbUPPzg8h9dMZMM7WSQ7VPoP6+Y8tEj1jaK+uQVf1shsT9/zOXEp/YE16BrbHEid0Wrq7ho9Bd2npF36OrvFReIVHZEYMxuNQGs1L4TTZ5HtYWI2G/LUXiFLkUqVB26zr5Kl8Jrj5L5uS19m2ouLNh5YjrHnqVrlUV5mJk8QB+ZLlJF1QDM7ewUvyeM6iQbyEe3k+6rACiYMMdYe3Hk9wH8xqIRx3uQNZY87HlOlszeius19Gvq1t21tOhbkfVcamX2GppA8JzRzwEpLGecZdYqBOEU6aNvk8/4rAo9cIHByN5mPgKeOLMtTLLB5RYoHQ5kMcKBQymtWWBL+0i5q9BqRJEPmyLcVLlPRSG6/haoijj60biuGcQsI1CGa08YHMBLe1S8HMedsIKxJmdFIiRRkiiU8kSDUtOMTnQOiAWjF+f0joJA5BoHSRn8wrkkU9o0XZORtrL8RVnimjKkjYeUH7jWs2rz2kf7mb5nLK7digV9viIob/1GC1NY+6aTNG1rG4GwW5ai8QqSzooVhYmxFS+E1F4hUdkRgzG41AazUvhNNnke1hYjYb8uj0G3aOtuOjpBuOjqfroXKMNjsRCB6kkIFf7cm9dIBcELGDsztsvTl3c3Zm2k0rO7myoouzHmAoLJMNYh2xp73pNRudF5G9Wpe2nyr6K6h89cr+mmo/fyGh5VOdNo9q16Jr0I93zOY3r5PkGwSkAj2coq4hEYuSWIL383NyVh40FrXygkk85O2kCCRykirqXNa4YCsPC8cTEl5Ni5ze17ikweXnhd7j7mGnzMSniBFc6aTxRG5KnYbi3bWtrBR6ydQrZEip3R8zzICe+1LmAx0cpHqg+lP5dHW3nR0jb9PoNu0dbcaSTsHxpXzyAoCQLAtqp4+0/CmUql7hdZ16qSTsHxoFWU5yX1Cw1cl+enj7T8K43lbWya/q897c9JJ2D40hWPEmLEpf8A3EGbxg19tC6fevGGn7OeNj7DdaFzV3eeIFpm+ub7VHogHRHdxtLal/enLDm2L2fy/tIQfvFwa2NDE3hHzFzI4sy3IuPaKheBvSRzfxXrECVJg+U5crDLz1ImYRKHBcXDAWN6cOsbl5HXWua1goPLaunT+60xtp87ERgfdc150oHdGn7R1X7tpoXWG8zfh2f3+bsQrEPwCtQwmAmkv65LRU8fafhQYum0rrGvXSSdg+NMgWQlwCTeza6ePtPwpJOwfGlfPICgJAsC2qnj7T8KZSqXuF1nXq0dIu/R1d40dGd40df9NA/zYpsI5/pESJ+c1sjlVj7L2Nch0faxso97aP71qNH6h8tF7DqcaPOS3d/meY5U+x6N2iUxN+A/D5rBVUXZibAAcpNKxSIMqtbXIXPIK4Fx0uKDZXi+TuGT384AWuFODsNiCNUFpJQPU8iUkmDkkGZdkkM6+nG2x6hw8g9hQ/2rBOPckB3gVFiV/CrbjWcRR5nYuMpLHVs9QoWYguw9ba9PIpc+06hQ1yyCNfdj2/3PzDxUBY+xRevrOxc+1jevt8THhl9kC5976OruGj0F3aekXfo6u8ViPB+9TZvJ8fLltfLrrD+P9qjyZ/Ove1tdYjwfvTeVzcTLbLt135easP4/2r6LyX4r5uzmrEeD9648mCmjxwPgfwmuWjxsmR/eTinSLJL9Knsfb2Gvqo/H9aNqaje3LXmOPFq/mbWQ29o1ijqmj8qnvINY7PmSBIxqueU8wHKa+iw4biRk62PO/OfVUS2PEws8n+VhsSdSSuNxOpakkOU2ZWYkXFTrh4wpe7WACjlYnYKw+G4T4Nl4wK/SR82ZWXWp9a1Pjc0/CCYcQzSLJGqshYkGwNPiZDJNMiwxuIkAjNrkgEmocXh25HjxBfwyAg04xWBZgq4lFtlJ2LMvmGj9Iosh9IDk9o06wDlX2JqFbY4xm946z8w2aYiEfi1n+wrUBUP0s2GGKl5CHxBMljWH8f7VJkz+ba9raqxHg/eoc3k+JmzWvl1Vh/H+1YjwfvU2byfHy5bXy66w/j/ao8mfzr3tbXo9Bt2jrbjo6Qbjo6n66BeGbDNDKvOkl1Ydhr/Ows8kDnnMZy3o80yflbSNcD2b3JPga2Gjd4wYX9seoH7xW0obe0a/5nJX2MwkX1ode40bjk9YOsU6xLzucoqMzt6bXSP4mh5V4xx5X4kGHU+keT2DWahXHzTIY5pplsMjaikS+YPXtpmlw8ieUw0p+0hOrXbzl2NT58fwUI0lLbZsNsjk9Z8xqjedYsSk8+Gj2zRgeKx15aglweHxcsRgwsupwyAh5CnmZqQBn4VDdkL15xnftlOgKcCmHc4pW1h4uVfadg9dKViia6qxubnWqk6rlRtOjzEJHt2Ctah87+6nGNbT8w6oUzN78n7ULpicSol/pLx5PCK6Mbzo6286Okbfp9Bt2jrbjSR9h+NKgWQhCQDezaqeTtHwosXTYG1jXqpI+w/GrKijPdNRuNXLfnp5O0fCuN5W98+v6vNa3PSR9h+NEqVOSyahYa+W/PSnyHCUFm/rQAKe1a2I3HHOh1MKNxyHnGj6sqFD9+w0LOpKsPWNRo6nQTL7ycVv7HR5rEdnz1DOzZUU6hfaSaXKJULDmuDYj5guUGWT3eQ/dWMmWNRZQDsHMDTF35WYlj2mneDAQNlnnX6xboor+f8AlqBIMNF9SJPzEnWzHlJ0KDjICZsGev50fskFBjEhMeKj5Xw8mqRKkEgQKY3GsPG4zIw9o0bDisQe7HX/AJJX77FtBvkZJcUByzH/AC4vwDWaNwu0+kx2nR57Z29i7K9UKfmb5hsiKXc+pdZr68rlz6r8lRgiIfI8OW9JrPIaJUqclk1Cw18t+enk7R8KVSqWsW1nXrpI+w/GmfPIA5AIsC2unk7R8KSPsPxpUCyEISAb2bVTydo+FFi6bA2sa9WjpF36OrvGjozvGjr/AKaOkO4UmbF4b/FYbnaSLzPxLcVrBFG8mGIQ+tPMOkcTErn/ABrqajZfKhH92TimtoNjXnWbtHz9lnO4Vy52B9E5zroWZTY/MhVQNbayFA5SRQWIzyCKHVYRoNbOR6hrNJkw2HTJEu9m6zHWdJII1g0gGG4RBlAGxZh/mp/3U95uCnGFa/LhZdcLfgN1rGY4cKDhIxJwfnbyOTNqjEWwxlK5Ex8h7ErZFgsOv/xg0AzpZMPGftJ3+ovsG005kllZznbazMbvIfadJui8VfdSvrZM7+8/GPzDxpzmf+mvxNIXdiFVV1lmOoAes1YyQx3nYedM/GkPbXSHcNHV3DR6C7tPSLv0dXeKi8RqOzopZTcmxFS+EU+aNr3FgNgvyVF4jQyOWyk7dX31L4RXHyWy8lr7dlReI02RSoYjbrOrlqXwiktg8ffFYbmFzx4/wNX+UwyS+4eX7tukXeA+VX2DUw7KOu2o+uvtokf7yNdcqEdh+fzuNxr/AMsp7STXpfp8zZIxzesLyVhpJo3geG8RGeLPtcA6mrFR4mEfWKamT1SIdan5i3xEf+Iw39WIXy/jW4p8uCxY+SYr1RT7H/A1IPlEN4nbl1Vrc4HZ/XnyUL2fIo9nFFSXwGDzpG42P0k34ti0LKAABzAaPrWyp7zahX1C2Z/cTWa5TfS2VFUszcyjWTQIznir6KDUopL4Pgq0vv4hv8sVD4jTZFKhiNus6uWpfCKXPI97m5Gw25Ki8RqSyIxVRYagNQqXwiovEajs6KWU3JsRUvhFPmja9xYDYL8mj0G3aOtuOjpBuOjqfro6Mbzojvwhgs8+E52PnRfjFbDRvLhxxedouTu6BdWBVvY2o1tidkP4TatsMskfsF8y7682T8w+f5sm9TXm4eIeEV6X6fMJBBurDappeLySLrU/Cp5YJ0+rLExVh8RWG8p/+3hlAf8AHFsP4axUWKiAuxiN2T31NmXQbMpBB9YpLYbFD5TB6kl+so9xqe+IiHyHHf1YhZX/ABrY0OJg5MIn4IYziGqS2Nx6G5G2LDnUz+19i0LSPYv6hyL92nZGM7e83wFctoU3toFYuBDzZwT2Lepc6ubzOAQLDYovUbSSyMERFFyzMbAD1k1Yzi0mJcefO/1/gNHRjedHW3nR0jb9PoNu0dbcank7xqV2VnUEFiQQTUKd0Uio4tZlABGvnFTyd40xkUIWs5zC9xz1CndFfRZs18nFva221Tyd40okbORmcZjaw1a6hTuinZEFrKpsBq5hSWwXCTlm5o8Ttdfx7RR48bXHMRyqfUaPEkFwDtB5VPrGjZKqS94WO6uaOUfkNcgDdh+fyOtdBF+QV6X6fO+hfq61PtWk4nI661/apZIZl1rLExRx7CKw6Y5OlS0M/wAHrHrFMdkGK+gk+6/FNRkTcHv5X3oJOK/YbGpAmA4UCwTEkAJKmuJ6BMCeWdE2M8uMfJHEnrKLRDyNJnaw4ufzUUeig0myICzewUOM7FiPWeSpliyprvrZnbW1gNZrD/jm/RBWIkkHo3svdFhVlHKdlcF498IR/qFw0pi74W1EEc4rFu+HlYR4fFu3HiY7ElflSppO8aUSNnIzOMxtYatdQp3RUjIgtZVNgNXMKnk7xqJGdkUklQSSRtNQp3RU8neNSuys6ggsSCCahTuikVHFrMoAI1840dIu/R1d40dGd40df9NHSHcNHV3CgfI4hLFgOMjDWrr61NJaeBrXH1XU61dfUwo/4aUjP1G5H+OjlR4z+E5q2SwSp94GYbq85GH9q5vmIXGdVsDY8amzAbRsK+0VteTcCa2HDxfkFel+nzQaU9lED2kUVhbnRhb71NSRSLzo4v8AetAEcx11j5UgdGR4HPlYWVhYgo9xQ4trWpzkMudUvZc5GXOfYKnDBPQBa55TTS/+2aWVvwhd5pPJx3uRe5a2y9GzKQwPMRTM7ttZjdjSPLM5yrFGpdyeYKtzWETg3DsAc+MNnt/SS5ovwrjU8/EACFDzpDojTCcMBSwkXVHOfRmA/PUTRyRu0csbizI6nKyt6wafPioL4bEnlLxbGPvKQa6Q7ho6u4aPQXdp6Rd+jq7xo9Bt2jrbjo6Qbjo6n66OjG86OtvOhB/xTBl/If7yXuYTvSlIYEqysLEEaiCDTeqBz/8A5k/lr7PEDxgijYDEKD7G4tc9q5CR2H5gujixHw9dSEPE5XOvLagoyA/VFgSeWpHEsSmMqkZe4U8VqimZWNxcBKww/E/wpIl+4nfUqr7qAViZfuIFTS/exqbtkqSPvCni7RRQ+y1D50iAjkLAUytbmINYaXE4qdssUMQuzH4DaSdQrGGYnX8iwr2j/HKNb1wdhsIpAB8igUn3jtJrFQ4aEbZJnEaD72rhM47FZSUgwMEuKd7f0lNYWfD5vs51Cv8AeAToTLBwrB5b1eXi4klPaLhKC6f14PildGN50dbedHSNv0+g27R1txqZO8KlRnZGAAYEkkbBUEndNRsiC92YWA1c5qZO8KYSMHBITjG1vVUEndNfR5suXPxb2vz1MneFKZFCBboMwvc81QSd006o4vdWNiLmpk7wqJ2VnYghSQQTWFkzgZ8fCE+uOnX1+nWsGmvOgRopD9pkOw9YDtrzHVu6b1ynN2665JDpid0jUnig6/VRkX1RRkf3tesLiD//AFP8KR0J2B1K37a4PxeLYGxGHheXX+EGuAJo05TiJY4PCxvWP4Mw6eoyTPuSv4mkccqQ4RU8Ts1YzhWf1NOqDwIK4Iadx0uJmav4bwJ99M/56/hnggezBQ/Cv4e4L9nySL4V/D3BR9uEi+FfwzwT7RhIl3CuAIk9cUksf5GrFcJ4OzlNUqzJ2SCmu+FxkmGZiLXKPkzWqbEzEG20Rjw1HMJliZoyZSwzKL7K2Gxrgbg98TklSWVsNGXJilZK4Pw8GN4N/wAReGNUMkK/5iGnAix6S4F/WJ1uniUVtW6n7jRjfGKTFLiyM4if0Ik896xOKwsDcuKOfGOOZEbVDWCjw6HW7DW8p55HOttIGfgzGRylv9qX6JxQJkweIjnA9LIblfxDVV5oZIEZHQEghuMO0GoJO6adUcXurGxFzUyd4VE7KzsQQpIIJqCTumpk7wqVGdkYABgSSRsFQSd01GyIL3ZhYDVznR0i79HV3jR0Z3jR1/00dIdw0dXcNHoLu0Qf4PW+LwyD/IPSIOj/AC6OVTXnwRt2qK5SD2jS5U/2NPJG3KNZHaKxIJ5ixG+mz2gLDXm1qQafVFi4Zrf1Y7f9n8zaZH31y8IrN90wR69I0QEvZidQty1sR2UewGwo68NwnN3ZAslKGR1Ksp2EHURTHPwPwtZH9WHl1N3a1xmVjYcqSC4rg3B4BRaIPh8MPLSM2yMZBdia/hmUp5jTyMGP4I0av4ExOJ9UHl9/kq/gzh3BtI9s5iVo0B5WJKnRbNisHLFHf03WyVtI1+3lokyYN3wj/g+p4CNHV3DR6C7tPSLv0dXeKi8QqOyIwZjcagNZqXwmmzyPawsRsN+WovEKXIpUqDt1nXyVL4TXHyXzclr7NtReIUcjlswG3V91S+E0maNrWNwNgty1F4hUlnRQrCxNiKl8JqLxLWFthtb4nBJ9lzvCPQ500bfk6jsJFegm75wtmjcf2r7bAQTdxyP+/wDmdI++vtIcDJ/8QoRgknWFpy55L10hPaL0/wBdMLOg7yPo2YvCwTr3PJb0o/6rgrCTeAA/OGvyqsB7nGq2WLHylPclPlF/s1OVRcTBJ98iEbkqXwmkzRtaxuBsFuWovEKks6KFYWJsRUvhNReIVHZEYMxuNQGs1L4TTZ5HtYWI2G/Lo9Bt2jrbjo6Qbjo6n66OjG86OtvOjpG36djKQfYa2qLdleaZU7r10afO5dXbRscTg8VB3LSW8H8zpH3153BeDbTyojf2o/6zg+eHuES6NkvBrRdyW/8A303/AEDw3/pOwrhn/hUmcGScYdZ2KeiocgCv/EXhCVj0iS/pPX/iFjIj6hPu8tX8aYXGouyPF4HMO8jB6bDHFDU7YbMIz6wHuRR1RLb7zrNbThMET/7NbHxcKdxCf+/R1t50dI2/T6DbtHW3Gkk7B8aV88gKAkCwLaqePtPwplKpe4XWdeqkk7B8aBVlOcl9QsNXJfnp4+0/CuN5W1smv6vPe3PSSdg+NEKqjJx9RuNfJfnp4+0/CgxdNpXWNeukk7B8aZAshLgEm9m108fafhSSdg+NK4LHKCQOWvscXPH3HK1yYiYf3Br0E3fPH/3ZYPuxF4v+/wDmdI++vP4Fg8LuK5VXdo5YV/sSK2nHCAf+oQxUTJIPNXk9ppAt1x2+OnIMGOxsYI98NWJk7axDfeAamB9qCmj7tLF2EUbvI231saN4XxRihPIYoAIl3Uyg4uabEuD1myL4FFPH2n4UGLptK6xr10knYPjTIFkJcAk3s2unj7T8KSTsHxpXzyAoCQLAtqp4+0/CmUql7hdZ16tHSLv0dXeNHRneNHX/AE0dIdw0dXcNHoLu09Iu+uThXGj/AOZq5MU/91Brka3YPn3DwyQYhSNt0Ib9KIKsAQRyg/y+SV99edwVIndnNcsabtHRsPFW2DFwSj2pIDS5Y1dyXbioADysbAVwjBjJMGcX8o8gc6J5XJl49YDF4kyY58SjwOgADoqkWev4exz+/iok3Ka/heMf1saW/IgrgPg5j6KzTsa/gHhHyXTwSFE+75Sq0CtwCQbXHqNri4qS3C+MiKIBtw0L6mlf1kakoWkxMixKduRfOc+pV1mlyQw5YoxzJGoVRo6u4aPQXdp6Rd+jq7xWI8H71Nm8nx8uW18uusP4/wBqjyZ/Ove1tdYjwfvTeVzcTLbLt135easP4/2r6LyX4r5uzmrEeD96Xyubj5r5duq3LzVh/H+1SZM/m2va2qsR4P3qHN5PiZs1r5dVYfx/tWI8H71Nm8nx7ZduXXbbQtfhTFOPdkkLrU2UEgtGwzRt7VoeRdiTfahJ9fJ8/wC0hK9htTh2fg+AP76Lkf8Al9K2+vOjxkB/CVkrohoHnOt/uBoU/CnC7IQDnkeZI/eLHItHAYIehJMXfsiBFfxBhkKgmy4Zn3uKxKYvDYm6iZIzHlkHmEEmv4bfhY58yP8AKiioP6Oxq4A4QwaehhocMn90IrgThKd+QT4iJPjWCwfBo6QXxEw90yahUks88z3Z3JkklduUk3LMaHkeEcVHljhYXMEJ3O1L5XNx818u3Vbl5qw/j/apMmfzbXtbVWI8H71Dm8nxM2a18uqsP4/2rEeD96mzeT4+XLa+XXWH8f7VHkz+de9ra9HoNu0dbcdHSDcdHU/XR0Y3nR1t50dI2/T6DbqKHGFFE+GchPLZNQdG9OsLNhZx9nMhRrc4B2jQ/E5UbWv7V9C/Mx4p9jfN5HZe0Xqw+Q46eAD1MfLD8/8AL6U1ti4UeP7pof2qJDkBGZiakVPcUCpXf3jekZ5JGCIiAszsdQVQNZJqwlgwy+VUbBI/HYfcTo9Bt1QLPhphZ0btBBGsEchFYvhHCkg6hKki+NK/ifv4K+6QV/E9wTyYD4zVwpj8R6owkAP564KhSdAMs73lm5QbPISRo6Mbzo6286Okbfp9Bt2jrbjSR9h+NKgWQhCQDezaqeTtHwosXTYG1jXqpI+w/GrKijPdNRuNXLfnp5O0fCuN5W98+v6vNa3PSR9h+NEqVOSyahYa+W/PTydo+FKpVLWLazr10kfYfjTPnkAcgEWBbXTydo+FJH2H40qBZCEJAN7Nqp5O0fCsLHjIQQfI4lFljudV7EbanPB03QSFpcO290rBPCrG0cw48MnuuN23RIQvoHWvYaiZD6ScYdh11MjHmvY9hoGvNkQ9uqn1uuHxMa9sb/y+cHtAr7LhXCP2h1rF4LD4RcS8DtMXMmZACbIgrhvEYnF4TByYhFSBIoT5LWRytWy16waJjJMFCZsSADK7ugz2ZrkA08naPhSR9h+NKgWQhCQDezaqeTtHwosXTYG1jXqpI+w/GrKijPdNRuNXLfnp5O0fCuN5W98+v6vNa3PSR9h+NEqVOSyahYa+W/PTydo+FKpVLWLazr10kfYfjTPnkAcgEWBbXTydo+FJH2H40qBZCEJAN7Nqp5O0fCixdNgbWNerR0i79HV3jR0Z3jR1/wBNHSHcNHV3DR6C7tPSLv0dXeNEKTQSwsskcih0YEjUQdRqc8Gz9AbyYYnelcHOIAf9VD9LAfxD6v4qNxQBqWRfYxqd2RhYg2rUuNgnwrdnlV/J/L5VQ15uLwR8dcnDGK/JHQBTERvAwOy0qlP1oWeMtE3tQlDur7Xg7DP7LxjT0i79HV3jR0Z3jR1/00dIdw0dXcNHoLu09Iu/R1d4qLxGo7OillNybEVL4RT5o2vcWA2C/JUXiNDI5bKTt1ffUvhFcfJbLyWvt2VF4jTZFKhiNus6uWpfCKXPI97m5Gw25Ki8RqSyIxVRYagNQqXwiovEajs6KWU3JsRUvhFPmja9xYDYL8lReI0MjlspO3V99S+EUSxjtlIOW1/dtXA8Ucx2zYYmB785yWDVw5io7oCBiIUm7ShjrhnAt7ySJWOw2IiEyI6Qq/FDnJnu1An5FjIMTYcoicEiiCpFwRrBB/ledEP7GuR8G/ZOK+z4YPjhWjYjWDQ4kmJGKT3cSokqXXg5ZsKfwtnXwuKl8IqLxGo7OillNybEVL4RT5o2vcWA2C/JUXiNDI5bKTt1ffUvhFcfJbLyWvt2VF4jTZFKhiNus6uWpfCKXPI97m5Gw25Ki8RqSyIxVRYagNQqXwiovEajs6KWU3JsRUvhFPmja9xYDYL8mj0G3aOtuOjpBuOjqfro6Mbzo6286Okbfp9Bt2jrbjo6Qbjo6n66OjG86LXxOFlSMnYJNZQ/c1ArcWYHURfURV/KjCCCQnbngPkm7Sv8rlVlr/ysbd2ZDXm8IYc9sR0f9TwYEPtgkKV/sYpP7xvp9Bt2jrbjo6Qbjo6n66OjG86OtvOjpG36fQbdo6241PJ3jUrsrOoILEggmoU7opFRxazKACNfOKnk7xpjIoQtZzmF7jnqFO6K+izZr5OLe1ttqnk7xpRI2cjM4zG1hq11CndFSMiC1lU2A1cwqeTvGokZ2RSSVBJJG01CndFTyd41K7KzqCCxIIJqFO6KRUcWsygAjXzip5O8aYyKELWc5he456hTuivos2a+Ti3tbbap5O8aUSNnIzOMxtYatdQp3RTsiC1lU2A1cwpbRST/ACmL3MR9J/YkituGxa4lfcxC/FP5R1iS3aK5ODnPY6mubBS/nTRtEmOj+6yNWtJ8BPGw7r1CndFTyd41K7KzqCCxIIJqFO6KRUcWsygAjXzip5O8aYyKELWc5he456hTuivos2a+Ti3tbbap5O8aUSNnIzOMxtYatdQp3RUjIgtZVNgNXMKnk7xqJGdkUklQSSRtNQp3RU8neNSuys6ggsSCCahTuikVHFrMoAI1840dIu/R1d40dGd40df9NHSHcNHV3DR6C7tPSLv0dXeNHRneNHX/AE0dIdw0dXcKA1h8HKfHHTAR4+CXBt73+Yn91/lbUIYfca+04JxY7sZesJicQMbhoFUQFBYoxfXnrgCOJ+SXGTmXwRhaxhmEObyMaoscUWfbkVaX/D4HCvGX55Zti6ekXfo6u8aOjO8aOv8Apo6Q7ho6u4aPQXdp6Rd+jq7xo9Bt2jrbjo6Qbjo6n66OjG86OtvOjpG36fQbdo6246OkG46Op+ujoxvOjrbzSXmw0XyuH3oOOe0UQJsLNHiIjzPEwcUbxYqCOaM9WRcw/k+chFfbYaeM/jjK16AHZqrgy+ElLZMRJNGiHKSDy5q4WRU6DBaz35KwyYfCwuwSNN5JuSTyk6fQbdo6246OkG46Op+ujoxvOjrbzo6Rt+n0G3aOtuNTJ3hUqM7IwADAkkjYKgk7pqNkQXuzCwGrnNTJ3hTCRg4JCcY2t6qgk7pr6PNly5+Le1+epk7wpTIoQLdBmF7nmqCTumnVHF7qxsRc1MneFROys7EEKSCCagk7pqZO8KlRnZGAAYEkkbBUEndNRsiC92YWA1c5qZO8KYSMHBITjG1vVUEndNfR5suXPxb2vz1MneFKZFCBboMwvc81QSd006o4vdWNiLmpYyDqILChZMNiWEXrhbjxnukVwlBBjcFLJCkc8oR5Ib50KfyG8o/opr7TR8mnoqd5pS2V1YhRc2BuaFjhsfiI/uDkipkBBxQ7J3qZO8KidlZ2IIUkEE1BJ3TUyd4VKjOyMAAwJJI2CoJO6ajZEF7swsBq5zUyd4UwkYOCQnGNreqoJO6a+jzZcufi3tfnqZO8KUyKEC3QZhe55qgk7pp1Rxe6sbEXNTJ3hUTsrOxBCkggmoJO6amTvCpUZ2RgAGBJJGwVBJ3TUbIgvdmFgNXOdHSLv0dXeNHRneNHX/TR0h3DR1dw0egu7T0i79HV3jR0Z3jR1/00dIdw0dXcNA4k8Awc/voM8dKCOYi9cL47CIpv5OKZvJ/ehutYvB471YmAb4Slfw7BM3KYMUY/C6GuAuEI/wCk8Uu8rXB/DAP9BP0esJwsh9eFU/8AfWG4bm9XkYoh+ev4cxT/ANXFRoPAprgrg3Cg8r58S47xArh3FLF0WHIw0fZFajq2kk0pSeR5MQYmFjEJtYQ6PQXdp6Rd+jq7xo6M7xo6/wCmjpDuGjq7ho9Bd2npF36OrvFReIVHZEYMxuNQGs1L4TTZ5HtYWI2G/LUXiFLkUqVB26zr5Kl8Jrj5L5uS19m2ovEKORy2YDbq+6pfCaTNG1rG4GwW5ai8QqSzooVhYmxFS+E1F4hUdkRgzG41AazUvhNNnke1hYjYb8tReIUuRSpUHbrOvkqXwmuPkvm5LX2bai8Qo5HLZgNur7ql8JpM0bWsbgbBblqLxCohNBxM8d3Uh4+Zksa4fng/28VF5cdqZKgwmN/oTgHslyV/DuP4m0xR+XHbFmrgzHR+/h5F3ioZB7UIpG7Kjc/hNYTEOeZYmO4VwHwnL7mEmbctfw5jtfSKIh2yFaiwmAHPPOH7BBnrFNwlj4mDxO8ZSGNhypHSZo2tY3A2C3LUXiFSWdFCsLE2IqXwmovEKjsiMGY3GoDWal8Jps8j2sLEbDflqLxClyKVKg7dZ18lS+E1x8l83Ja+zbUXiFHI5bMBt1fdUvhNJmja1jcDYLctReIVJZ0UKwsTYipfCai8QqOyIwZjcagNZqXwmmzyPawsRsN+Wv/EADcRAAIBAgQDBgQFAwUBAAAAAAECAwARBBIhMRBBURMgIjAycUBhcoEjM0JSoZGxwQUUU2Jw4f/aAAgBAgEBPwD4AyIP1Cu0T9woEHY/GPMF0GppnZtzWYVmFZ6XEMN9aSZH02PxBsBc1JKW0G1FquT3oJs3hbf4edz6aY8uCxM21OjJuO4KSFrA3tQvz+FtWJNrHhBHm1O1POkfhAvUk/aLlK9wGxBozyE+q1RYi5Cv/X4bEtdwOg4LKFhsPVxsR3bGoWzRqfghxlN5G9+4qjepFzRKw/ToeEShnAO1MMrEdKUXNZQ8NhuprDH8P7/Arie0xCxx6oL5jwvwkFnYfPuJFIy5lIqJJVJDAZTUyhZCBSnKwPQ1MmdRItQorkgtY0qRw3a+/WoWWzkaKD8BjcRa8SH6j/isAoETPzLfwKJMrHWyimiKeJCdKRgyhhWJFpL9R3EldNAdKOJkokk3PCCXL4G2NTRZDmGx4Jphpj1U1hJ8w7JzqPSfOxE3YxluZ0Fak3NYTXDkDkSKQ/iIp2vXbMJjc+G9qMrozKjeG5pmZjdjfvkEcIJM4yNUqBHKim8ODf5mgSCCDYioJRNGG57H383Fy9rKQNl0HDAvYuh56iplMcgI9xTHMxPkRIHexpr3saSJ32FKiQeJmuads7FutYrwYeNOp4YSXJKFOzaeZiJOyhdudrD3NDgjFGDLuDSPHiU/uOYoYUX9WlTBAMqqLju2IpYWdQykGkWWNg2Q0Zj/AMNGWZzZVtS4d2N3NEI0ixoNAdTWNa8oX9o/vxhftI0fmRr7+X/qD+hPue4rMpupINYSZ5Q4c3ItUos7DgqliQOIZc65hdaYNC2ZPSaXFfuWhiY/nQnQOza2IFSYhmFlFhWHUKrSNTuXdnPM344F7q6dDfy8Yc2IPyAHdw8vZSgnY6Gp12am3pGKMGFTICO0TY8YZgoyv6a7OB9Rb7GjDAOf81KIQLJqajQyMBy51jJMiLEvMa+3cwTWmt1Uj/PlzG88v1Ed1EZ2yqCTSoRCqNqQtqdSLjmOEUuTQ6qalht4k1XuojObAVDDayqLk1icP2o6OKZWRirCxHHDG08fv5cv5sv1t3IsGzayeEdOdQ4bw2RQq02GGXwklqkiDfI08DjYXrs3uBlNRRypzBHSngR9djRw0g2saGGkPQUuGUeo3oAAWAqGYJoQLHc86liEguPVyNTwLKCrCzDY9KkjaJirDhB+dH9Q8ucWmk+onhFh5JdhYdTWHwqobIMzdajgVNW1PAv0qSPOcw3ogqbEcJMVMZWKuQAdBUeOkH5ihh1GhqOaOYeBtenOmWfkwpmWBc8rFjUuJlmJF8q9BWCYpMFvowqJjkX2p0WVf+w2rHAdkp55uGGF54/fy8Ytp2+YBqFQ0qK2xYVFH2hsCABSqsa2Ggov07hAIsRepIwozCjuffgmTMCzOv0isUc0MJR2ZNQSefvRLDBgyKGIOgajqb2A9qw/58f1Covy1onKCegrHPdkToLnhglvNfopPl49NEf7GgSCCNwaglF0kGxH8Gm2PecZlYViEyTOORNx9+EMDzHTReZpEWNQi7CiAwswBHQ0MHDKbBB/Uiv9gsDCQDb53pCCotUxslupqZ+0ldup04YFLI79Tb+nlzx9pEy87ae44YJ80ZT9p/g1E2eNT8rHuEgAk8cZhTI4ykC3XoaiwC3AYlz02FRQJGBoP8Cpo8jabHbhhvW301IwRSaRci2586xsmRHPRbD3PGJOzjVOg8zFRdnKSNm1FYaTs5l6HQ/esK2jL96bc8Zfy2q1o0+kcHsFJIBtWHynMbjMeEqZ0PUajhhh6z7UT2j3/Su3vRIAJNY+S5VOt2PDBxZ5Mx2TX7+bPEJoyvPcUQQSDoRWDfMUb96//affjJ6G9qb0jgQCLGmhI1Q0s7obOL/3pZUfY2PQ1MmRz0OopCRHlX1Of6CgAAAKmayhetOkmJld0W630PKwpcB+9/sKijWJMq+di4M34qDX9QrAN+HF8mt/NPy4G9jbejLdGUizbUZUKL4hXap1rtl6Gu3H7aMwbQoD96NuQtVzSuUvYC9ds/ypiWN21+CRFjDZdLm9PqAeBTP+srRwwCkh9h08jso9RkHwu8Sew47+QSTuafRm9z8Ip/BT2HcYWZh8z5Enrb4RZHXQHTpSyq3yPGUWdu+JUCjfYU7ZmJ+GV2XY0J+q1Iwdrjp/4n//xABAEQACAQMABgUJBgUDBQAAAAABAgMABBEFEBIhMVEGEyAiQRQwMkBhcXKBsSNCYpGhwTNQUlOSFbLRJDVzdPH/2gAIAQMBAT8A89isVstyrYblWKx62qE8aCgcBWya2TWxRhBpo2Xjwoj1hUxvNBaAA7UseycjhR9WjXxpR46jIopXV+B7BppAd3H1eEZzqlfG4UsTPvpItls57BGRihEnLNPDgZWj6iOxANxOoxlpcnhryD2cipBhiPUR2IxhB2GakOzIQfHVISqkilO0oNE4FbWzJk8DU3pn3eoAVLocWmiZLu6JWdigij5ZIzn247EZyg7DyKGwQakZCBs5zUbFkBNMNoEVE2yShqVioG6izSYFMrFkUAljgADeSfPiujuiQ2zfXC7gfsVP+6ulM5e9igz3Y4s4/ExrcgG7JNB9rcwojBIqA90jkew0atvPGhCtAY1SpnvCon2hsnjWBVmNrSdmOU6H8iDWntFiIm8gXuMftFHgT973Gj53RGjzpG7WI/wl70h/Dy+dMViQIgAwMADgAK6RKRpLJ+9Eh/amHcY11YMQI40I1YAkb8UAFGAO2CDqlTYO0KjYsuTWiU6zS9vyXaP5KadFkVkdQysCCDwINaSsmsbp4Tkr6SHmp84K0FZCysFZxiSUB3/YUSWJJrpLbFkguQPRJRvcd4qMh0INKMADzEjFVyKXGM00ir40zNLuA3Ui7KgV0cj272ebwSPHzY6tO2flNmZFH2kGXHw/eFHzeibQXl/BCRlNraf4V3mpW4L8zqnhjuIZIZBlHGDV7ZXGjp9hxuPoOODCuvOOG+oixOSePZyDRlCkhgRTNG642q6v8dBI13s2aMwAwooFgjO3E7hXRyDq7J5Txlk/RN31zrv7byS7ngHBW7vwnePNCuilvvurk+yNT+ppjtEnXJHHMhjlRXQ8VYZFad0fBZNA9umwsm0CMkjIxzpD3RqZguCdZDbJ2dxpSsg2W4ijAfA11L8q6pyoFJCBvbfUm1JIsSDLEgAcyeAq2gFtbwwDhGgXPMjidfSaDEtvOB6alD713j6+aFaAj6rQ8beMjOx/PZ+g7OlrM31m8aDMikOntI8KjO8rS8KZdpSKicjuNxGuSPPeXjW1IvOutl4ftUZlJy3CnfYXNdHbMSyvduMiM7KfEeJ+Q7HSGPb0cW/tyK359396PmRWj12NF2CjxgRvzGezPPDbRmSaRUQeJq7mSa7nmiUqjyFgD7aRvyOqSPa3jjUcn3W3Hss6rxqWUDLucCtFaVawf+uB97Af7hUM0VxGssTh0bgRr0uu1oy7H4M/4kGj5kVZn/obH/1ov9uskKCSQABkk1fdIYYsx2gEr/1n0B/zV5pF5pC88rSSfT9hSXhL98AL9KR8e0Usy+JrbTnTujHgc86WVl9ooTr4g0Z18M00zHhuonxJqe3Mm/aO0BuB4VBMYTg52fEcq0dpKaxfbiO1G3pJ4N/watbqG8hWaFsqeI8QeR1aS/7fd/8Ahf6UfMitGvt6PszygRf8RjVe6Us7HIkfMn9td7fPlWkdLz3mTK2xD4Rjh8+ZqW6d8he6v6mgKCc6hm6sbJGVpSGGVORqs9C6OSyhWeBHkZAXY8cmrrozZyZNrOYm8FbvLV5o670e2LiLung43qfcaBi8QasrKfSU3U24UADLEnAAqx0RZaNCts9bN/cYfTlXSOJZ7Ay7HfhYEHxwTskVMg6xx7aileBvwniK6NO4vJkB7hhJI9oYAfXVpdtjRl2fwAf5ECj5kVoCTrNGRjxjd0P57X71fSSQ2VzJH6axMQeWBxqebqxtHLFj+vtpmeVsscmgnOuGsEqcg4NRTF8q3LjWcrGRwKKdVwbgwmOGGCUEbxK5A92MEGtCARaQ0hHcW8Uc5ClVUDCDxC494qNYZOkDpazNEjKQ7QkDguSB8xQGyoXbdseLkE1pTB0dd54dU1TfxWpV2mVeZro1Bswz3B++wRfcu86ukUmxo/Y/uSqvyHe/aj5rozP3rm3J4gSL9DTosiMjjKsCpHMGr22aNprdvTRiPmtId47UbbLqfbWi7kXWj7Z895E6tvem7VpHScGj073elI7sY+p5CrmeS7nknlwXcgnAwNwwKjkeJg8cjIw4FSQR8xX+vaRtlybliOTKrfqRUnSK5vomtpHUB8Z7uCcHNSBg7bXEnNW4y+eQqwt/JbK3hIwVQbXxHedXSWfanggH3ELn3t/883o268kvYJicKGw/wtuOrpHbdXdR3AG6VcH4kqdermYDnkdgAsQBxNEYJHLVoTTCWMUqyq7q2CAvgw3Hjzq86TTlG6lFhX+o99qubya4dmZ27xySTlj7zVvL1qb/AEl3HVeH7JR+P9qijMjheHiTyFSvtsT4cBWg7Xym8gQjIL7TfCm/USAMk4A4k1fXPld3PP4O3d+Ebh+nmxWhLzyqyVGOZIcI3u+6a0za+VWEoA78f2i+9eP6VervR/lS8Brg/ir8/pROZZPiJ/XVHtFwqsRmrzbBUYOwBuPt1QSdXKD4HcdV6d0Y95pV6qLH333n2DlQBJAHE10YtsCe4xuAES/U6tPXnk9mYVPfnyvuXxo+c0ZfGxukl3lD3ZBzU0rK6qykMrAEHwINaTg6h7iH+1KQPcDik4a4f4qe+l9JtQJBBHGluAdzintY5BtRnHu4VJBLHxXI5jeKt5OsiB8RuNSqGm2m9CNR8zypiWJJ4mrdcsWPBagns9D2UEE8oWQJlkG9tpt53Cpuk28i3tvnIf2FXl5NfTmabGcAALwAHgPOitA6UEZFnO3cJ+yY+BP3a6RRbN/c/jjVh/jj6io/HUMZGRkeNLDsyKynK8aEMgdhsHid9CCXl+tC2fmteTH+v9KWAqciQj5UM43nNAAEkAZPGnjEmASQOQryeP20gEeNndiickniT6jPcy3RiMzbTIgTa8SASd/50gwSNSydXn7MPS3ZLKDHjJA41ms9oTzbiXajQ7A88KIxNIPxN9decUe2ABwFJvjT4RQ7Ao+dFOPt5Peewpyinmo7ZqLfEvu9TFPFG+8jfzFPA68N41xHMS9swSFm4AZNRqUQKTwrNZ159QzTRo+8jfzo23JvzqNCibJI4+YPq+aH8gFH+QH+QA1urFY1nzn/2Q==;" vertex="1" parent="1">
          <mxGeometry x="220" y="170.5" width="67" height="67" as="geometry" />
        </mxCell>
        <mxCell id="mLVlggJ9Dr1vu6lOszKY-3" value="Amazon S3" style="sketch=0;outlineConnect=0;fontColor=#232F3E;gradientColor=none;strokeColor=#ffffff;fillColor=#232F3E;dashed=0;verticalLabelPosition=middle;verticalAlign=bottom;align=center;html=1;whiteSpace=wrap;fontSize=10;fontStyle=1;spacing=3;shape=mxgraph.aws4.productIcon;prIcon=mxgraph.aws4.s3;hachureGap=4;jiggle=2;curveFitting=1;fontFamily=Architects Daughter;fontSource=https%3A%2F%2Ffonts.googleapis.com%2Fcss%3Ffamily%3DArchitects%2BDaughter;" vertex="1" parent="1">
          <mxGeometry x="540" y="30" width="80" height="100" as="geometry" />
        </mxCell>
        <mxCell id="mLVlggJ9Dr1vu6lOszKY-7" value="" style="outlineConnect=0;dashed=0;verticalLabelPosition=bottom;verticalAlign=top;align=center;html=1;shape=mxgraph.aws3.codedeploy;fillColor=#759C3E;gradientColor=none;sketch=1;hachureGap=4;jiggle=2;curveFitting=1;fontFamily=Architects Daughter;fontSource=https%3A%2F%2Ffonts.googleapis.com%2Fcss%3Ffamily%3DArchitects%2BDaughter;" vertex="1" parent="1">
          <mxGeometry x="380" y="145" width="67.5" height="81" as="geometry" />
        </mxCell>
        <mxCell id="mLVlggJ9Dr1vu6lOszKY-8" value="" style="outlineConnect=0;dashed=0;verticalLabelPosition=bottom;verticalAlign=top;align=center;html=1;shape=mxgraph.aws3.ec2;fillColor=#F58534;gradientColor=none;sketch=1;hachureGap=4;jiggle=2;curveFitting=1;fontFamily=Architects Daughter;fontSource=https%3A%2F%2Ffonts.googleapis.com%2Fcss%3Ffamily%3DArchitects%2BDaughter;" vertex="1" parent="1">
          <mxGeometry x="450" y="290" width="76.5" height="93" as="geometry" />
        </mxCell>
        <mxCell id="mLVlggJ9Dr1vu6lOszKY-9" value="" style="outlineConnect=0;dashed=0;verticalLabelPosition=bottom;verticalAlign=top;align=center;html=1;shape=mxgraph.aws3.ec2;fillColor=#F58534;gradientColor=none;sketch=1;hachureGap=4;jiggle=2;curveFitting=1;fontFamily=Architects Daughter;fontSource=https%3A%2F%2Ffonts.googleapis.com%2Fcss%3Ffamily%3DArchitects%2BDaughter;" vertex="1" parent="1">
          <mxGeometry x="630" y="290" width="76.5" height="93" as="geometry" />
        </mxCell>
        <mxCell id="mLVlggJ9Dr1vu6lOszKY-10" value="" style="edgeStyle=none;orthogonalLoop=1;jettySize=auto;html=1;rounded=0;sketch=1;hachureGap=4;jiggle=2;curveFitting=1;fontFamily=Architects Daughter;fontSource=https%3A%2F%2Ffonts.googleapis.com%2Fcss%3Ffamily%3DArchitects%2BDaughter;" edge="1" parent="1">
          <mxGeometry width="80" relative="1" as="geometry">
            <mxPoint x="140" y="200" as="sourcePoint" />
            <mxPoint x="220" y="200" as="targetPoint" />
            <Array as="points" />
          </mxGeometry>
        </mxCell>
        <mxCell id="mLVlggJ9Dr1vu6lOszKY-13" value="" style="edgeStyle=none;orthogonalLoop=1;jettySize=auto;html=1;rounded=0;sketch=1;hachureGap=4;jiggle=2;curveFitting=1;fontFamily=Architects Daughter;fontSource=https%3A%2F%2Ffonts.googleapis.com%2Fcss%3Ffamily%3DArchitects%2BDaughter;" edge="1" parent="1" target="mLVlggJ9Dr1vu6lOszKY-9">
          <mxGeometry width="80" relative="1" as="geometry">
            <mxPoint x="580" y="241" as="sourcePoint" />
            <mxPoint x="660" y="241" as="targetPoint" />
            <Array as="points" />
          </mxGeometry>
        </mxCell>
        <mxCell id="mLVlggJ9Dr1vu6lOszKY-14" value="" style="edgeStyle=none;orthogonalLoop=1;jettySize=auto;html=1;rounded=0;sketch=1;hachureGap=4;jiggle=2;curveFitting=1;fontFamily=Architects Daughter;fontSource=https%3A%2F%2Ffonts.googleapis.com%2Fcss%3Ffamily%3DArchitects%2BDaughter;" edge="1" parent="1" target="mLVlggJ9Dr1vu6lOszKY-8">
          <mxGeometry width="80" relative="1" as="geometry">
            <mxPoint x="570" y="236.5" as="sourcePoint" />
            <mxPoint x="650" y="236.5" as="targetPoint" />
            <Array as="points" />
          </mxGeometry>
        </mxCell>
        <mxCell id="mLVlggJ9Dr1vu6lOszKY-19" value="&lt;b&gt;GIT-HUB&lt;/b&gt;" style="text;strokeColor=none;align=center;fillColor=none;html=1;verticalAlign=middle;whiteSpace=wrap;rounded=0;fontFamily=Architects Daughter;fontSource=https%3A%2F%2Ffonts.googleapis.com%2Fcss%3Ffamily%3DArchitects%2BDaughter;" vertex="1" parent="1">
          <mxGeometry x="70" y="250" width="60" height="30" as="geometry" />
        </mxCell>
        <mxCell id="mLVlggJ9Dr1vu6lOszKY-20" value="&lt;b&gt;WEB-HOOK&lt;/b&gt;" style="text;strokeColor=none;align=center;fillColor=none;html=1;verticalAlign=middle;whiteSpace=wrap;rounded=0;fontFamily=Architects Daughter;fontSource=https%3A%2F%2Ffonts.googleapis.com%2Fcss%3Ffamily%3DArchitects%2BDaughter;" vertex="1" parent="1">
          <mxGeometry x="130" y="170.5" width="90" height="30" as="geometry" />
        </mxCell>
        <mxCell id="mLVlggJ9Dr1vu6lOszKY-21" value="&lt;b&gt;Artifact&lt;/b&gt;" style="text;strokeColor=none;align=center;fillColor=none;html=1;verticalAlign=middle;whiteSpace=wrap;rounded=0;fontFamily=Architects Daughter;fontSource=https%3A%2F%2Ffonts.googleapis.com%2Fcss%3Ffamily%3DArchitects%2BDaughter;" vertex="1" parent="1">
          <mxGeometry x="440" y="40" width="60" height="30" as="geometry" />
        </mxCell>
        <mxCell id="mLVlggJ9Dr1vu6lOszKY-22" value="&lt;b&gt;EC2&lt;/b&gt;" style="text;strokeColor=none;align=center;fillColor=none;html=1;verticalAlign=middle;whiteSpace=wrap;rounded=0;fontFamily=Architects Daughter;fontSource=https%3A%2F%2Ffonts.googleapis.com%2Fcss%3Ffamily%3DArchitects%2BDaughter;" vertex="1" parent="1">
          <mxGeometry x="458.25" y="383" width="60" height="30" as="geometry" />
        </mxCell>
        <mxCell id="mLVlggJ9Dr1vu6lOszKY-23" value="&lt;b&gt;CODE-DEPLOY&lt;/b&gt;" style="text;strokeColor=none;align=center;fillColor=none;html=1;verticalAlign=middle;whiteSpace=wrap;rounded=0;fontFamily=Architects Daughter;fontSource=https%3A%2F%2Ffonts.googleapis.com%2Fcss%3Ffamily%3DArchitects%2BDaughter;" vertex="1" parent="1">
          <mxGeometry x="375" y="220" width="100" height="30" as="geometry" />
        </mxCell>
        <mxCell id="mLVlggJ9Dr1vu6lOszKY-25" value="&lt;b&gt;EC2&lt;/b&gt;" style="text;strokeColor=none;align=center;fillColor=none;html=1;verticalAlign=middle;whiteSpace=wrap;rounded=0;fontFamily=Architects Daughter;fontSource=https%3A%2F%2Ffonts.googleapis.com%2Fcss%3Ffamily%3DArchitects%2BDaughter;" vertex="1" parent="1">
          <mxGeometry x="650" y="383" width="60" height="30" as="geometry" />
        </mxCell>
        <mxCell id="mLVlggJ9Dr1vu6lOszKY-26" value="&lt;b&gt;DEPLOY&lt;/b&gt;" style="text;strokeColor=none;align=center;fillColor=none;html=1;verticalAlign=middle;whiteSpace=wrap;rounded=0;fontFamily=Architects Daughter;fontSource=https%3A%2F%2Ffonts.googleapis.com%2Fcss%3Ffamily%3DArchitects%2BDaughter;" vertex="1" parent="1">
          <mxGeometry x="540" y="268" width="60" height="30" as="geometry" />
        </mxCell>
        <mxCell id="mLVlggJ9Dr1vu6lOszKY-27" value="&lt;b&gt;Deploy&lt;/b&gt;" style="text;strokeColor=none;align=center;fillColor=none;html=1;verticalAlign=middle;whiteSpace=wrap;rounded=0;fontFamily=Architects Daughter;fontSource=https%3A%2F%2Ffonts.googleapis.com%2Fcss%3Ffamily%3DArchitects%2BDaughter;" vertex="1" parent="1">
          <mxGeometry x="300" y="170.5" width="60" height="30" as="geometry" />
        </mxCell>
        <mxCell id="mLVlggJ9Dr1vu6lOszKY-30" value="&lt;b&gt;&lt;font style=&quot;font-size: 18px;&quot;&gt;SIVARANJAN&lt;/font&gt;&lt;/b&gt;" style="text;strokeColor=none;align=center;fillColor=none;html=1;verticalAlign=middle;whiteSpace=wrap;rounded=0;fontFamily=Architects Daughter;fontSource=https%3A%2F%2Ffonts.googleapis.com%2Fcss%3Ffamily%3DArchitects%2BDaughter;" vertex="1" parent="1">
          <mxGeometry x="380" y="430" width="60" height="30" as="geometry" />
        </mxCell>
        <mxCell id="mLVlggJ9Dr1vu6lOszKY-32" value="" style="edgeStyle=none;orthogonalLoop=1;jettySize=auto;html=1;rounded=0;sketch=1;hachureGap=4;jiggle=2;curveFitting=1;fontFamily=Architects Daughter;fontSource=https%3A%2F%2Ffonts.googleapis.com%2Fcss%3Ffamily%3DArchitects%2BDaughter;exitX=0.5;exitY=0;exitDx=0;exitDy=0;" edge="1" parent="1" source="mLVlggJ9Dr1vu6lOszKY-2" target="mLVlggJ9Dr1vu6lOszKY-3">
          <mxGeometry width="80" relative="1" as="geometry">
            <mxPoint x="230" y="90" as="sourcePoint" />
            <mxPoint x="310" y="90" as="targetPoint" />
            <Array as="points">
              <mxPoint x="254" y="80" />
            </Array>
          </mxGeometry>
        </mxCell>
        <mxCell id="mLVlggJ9Dr1vu6lOszKY-33" value="" style="edgeStyle=none;orthogonalLoop=1;jettySize=auto;html=1;rounded=0;sketch=1;hachureGap=4;jiggle=2;curveFitting=1;fontFamily=Architects Daughter;fontSource=https%3A%2F%2Ffonts.googleapis.com%2Fcss%3Ffamily%3DArchitects%2BDaughter;" edge="1" parent="1" target="mLVlggJ9Dr1vu6lOszKY-7">
          <mxGeometry width="80" relative="1" as="geometry">
            <mxPoint x="580" y="110" as="sourcePoint" />
            <mxPoint x="660" y="110" as="targetPoint" />
            <Array as="points">
              <mxPoint x="580" y="186" />
            </Array>
          </mxGeometry>
        </mxCell>
        <mxCell id="mLVlggJ9Dr1vu6lOszKY-34" value="" style="edgeStyle=none;orthogonalLoop=1;jettySize=auto;html=1;rounded=0;sketch=1;hachureGap=4;jiggle=2;curveFitting=1;fontFamily=Architects Daughter;fontSource=https%3A%2F%2Ffonts.googleapis.com%2Fcss%3Ffamily%3DArchitects%2BDaughter;" edge="1" parent="1">
          <mxGeometry width="80" relative="1" as="geometry">
            <mxPoint x="290" y="199.5" as="sourcePoint" />
            <mxPoint x="370" y="199.5" as="targetPoint" />
            <Array as="points" />
          </mxGeometry>
        </mxCell>
        <mxCell id="mLVlggJ9Dr1vu6lOszKY-35" value="" style="edgeStyle=none;orthogonalLoop=1;jettySize=auto;html=1;rounded=0;sketch=1;hachureGap=4;jiggle=2;curveFitting=1;fontFamily=Architects Daughter;fontSource=https%3A%2F%2Ffonts.googleapis.com%2Fcss%3Ffamily%3DArchitects%2BDaughter;" edge="1" parent="1">
          <mxGeometry width="80" relative="1" as="geometry">
            <mxPoint x="446.5" y="200.5" as="sourcePoint" />
            <mxPoint x="570" y="240" as="targetPoint" />
            <Array as="points">
              <mxPoint x="570" y="201" />
            </Array>
          </mxGeometry>
        </mxCell>
        <mxCell id="mLVlggJ9Dr1vu6lOszKY-37" value="&lt;b&gt;compare&lt;/b&gt;" style="text;strokeColor=none;align=center;fillColor=none;html=1;verticalAlign=middle;whiteSpace=wrap;rounded=0;fontFamily=Architects Daughter;fontSource=https%3A%2F%2Ffonts.googleapis.com%2Fcss%3Ffamily%3DArchitects%2BDaughter;" vertex="1" parent="1">
          <mxGeometry x="480" y="160" width="60" height="30" as="geometry" />
        </mxCell>
      </root>
    </mxGraphModel>
  </diagram>
</mxfile>
